<?xml version="1.0" encoding="UTF-8"?>
<svg id="b" data-name="Layer 2" xmlns="http://www.w3.org/2000/svg" width="54.831" height="59.27" viewBox="0 0 54.831 59.27">
  <g id="c" data-name="Layer 1">
    <g>
      <path d="M.703,27.994c-.019-.121-.02-.477.157-.478l3.478-.011c.145-.075.219-.431.102-.545l-.779-.035-.008-1.017c0-.036-.072-.17-.086-.145l-.071.124c-.19.488-.597.824-1.101.981-1.046.325-2.141-.305-2.387-1.388-.043-.187.112-.356.252-.386.232-.05.35.074.408.289.18.67.934,1.065,1.494.863.266-.096.5-.172.626-.52l-1.336-.018c-.12-.002-.257-.186-.258-.306,0-.123.13-.308.263-.308h2.142c.12-.234-.024-.601.222-.606.474-.011.89-.029,1.349-.138,1.215-.289,2.407-1.398,2.628-2.506l.209-1.047c.466-.02.888-.32,1.081-.776.28-.66-.155-1.459-.932-1.605l-.022,1.665-.104.168c-.028.046-.169-.004-.221-.043l-.003-1.733c-.535-.087-1.014.552-1.047,1.073-.032.493.3.823.631,1.174-.212-.025-.421-.122-.567-.261l-.279-.267c-.241-.231-.366-.595-.411-.929-.138-1.017.52-2.016,1.586-2.102l3.064-.035c.036-.195-.119-.217-.248-.315-2.288-1.746-3.432-4.416-3.147-7.295.07-.706.289-1.356.496-2.043-.074-.105-.28-.14-.425-.097-.354.104-.617,1.859-.695,2.595-.057.537.019,1.056.096,1.598.165,1.16.526,2.238,1.143,3.235.099.16.13.378.05.561-.123.032-.349.027-.5.001-.209-.345-.37-.666-.55-1.051-.335.268-.077.964.342,1.303.344.279.739.254,1.146.171.117-.024.361.155.373.277.019.198-.185.358-.378.4-1.146.25-2.242-.553-2.292-1.764-.013-.326.099-.709.277-1,.085-.139.246-.527-.036-.581-.356-.068-.742-.024-1.155-.033-.086-.192-.141-.392-.187-.601-.445-2.049-.179-4.441.713-6.335.416-.904.898-1.7,1.537-2.456.037-.894.409-1.709,1.044-2.309.558-.448,1.169-.738,1.897-.759v3.474s.074.136.074.136c.02.036.123.026.199,0l.007-3.607c1.638.1,2.912,1.375,2.867,3.02l2.497.038c1.586.14,3.014.817,4.145,1.921l.581-.565c.088-.085.36-.134.461-.05.131.108.136.387.031.495l-.881.915c.552.147,1.012-.175,1.246-.522.306-.453.258-.924-.012-1.375.016-.109.077-.283.142-.341s.293-.056.358.004c.17.156.249.377.321.585.28.812-.27,1.936-1.195,2.236-.703.228-1.35.064-1.936-.412l-.853.828c-.575-.567-1.273-.932-2.034-1.133-.695-.183-1.297-.164-1.998.008-1.444.354-2.601,1.425-3.048,2.849l-.145.586c-.281,1.807.533,3.433,2.07,4.382.709-.417,1.489-.741,2.287-.647.678.08,1.146.699,1.066,1.333-1.173-.396-2.173-.31-3.023.528-.101.1-.296.085-.406-.008-1.671-.734-2.843-2.265-3.089-4.077l-.072-.135c-.016-.031-.139-.053-.147-.019l-.05.228c.318,1.899,1.546,3.506,3.32,4.266.137.065.222.179.24.326v3.356s-.084.183-.084.183c-.023.052-.187.071-.245.066l-.583-.054c-.625-.854-.919-1.897-.716-2.941.043-.22.093-.369-.163-.517l-.155-.089c-.044-.025-.131.074-.169.128-.24,1.033-.161,2.074.301,3.028l.395.62c.292.459.756.763,1.191,1.172l-2.469-.008c-.156,0-.23.303-.22.431.031.406-.037.724-.137,1.105-.404,1.538-1.387,2.815-2.724,3.676-.105.068-.205.301-.25.429-.373,1.064-.55,2.186-.529,3.307.005.264.188.348.387.414,1.438.479,2.479,1.744,2.65,3.244.157,1.379-.257,2.544-1.26,3.478-.686.64-1.56.981-2.499,1.039l-.423-.002c-1.419-.08-2.708-.888-3.339-2.164-.622-1.259-.62-2.408.01-3.689-.654-.873-1.139-1.802-1.373-2.86l-.196-1.254ZM11.714,3.718l-.141.401c-.143.408-.482.672-.841.776-.409.117-.848-.009-1.173-.302-.233-.21-.329-.546-.42-.873h-1.568c.027.142.078.243.167.352l2.676,3.237,2.68-3.239c.099-.119.158-.187.161-.352h-1.541ZM4.285,30.244l-.031-.808c-.135-.091-.355-.065-.506-.053l-.649.054c-.036.464.084.904.273,1.337l.913-.53ZM4.681,32.376l-.276-1.048c-.868.39-1.409,1.255-1.593,2.136-.341,1.633.976,3.353,2.679,3.522,1.623.161,3.016-.887,3.331-2.466.262-1.313-.421-2.597-1.604-3.231-.045-.026-.133-.094-.148-.057l-.058.148c.227,1.059.7,1.942,1.269,2.909l-3.555.01c-.053-.033-.129-.08-.149-.116s.006-.115.02-.175c.154-.677.772-1.048,1.474-.943.137-.21-.019-.653-.285-.66l-1.107-.03Z"/>
      <path d="M18.138,25.657c-1.001.574-1.811,1.175-1.757,2.472.013.305.042.65.199.929l1.039,1.842-3.137,1.825c-.033.005-.125.021-.132-.002l-.049-.151c-.198-.612.007-1.221.564-1.544l.963-.559c.036-.191-.144-.448-.312-.473l-.974.57c-.539-.96-.77-2.026-.641-3.07.212-1.712,1.226-3.009,2.685-3.842l3.676-2.097,4.728-2.73,2.735-1.586,2.589-1.514c.202-.118.399-.38.554-.554.365-.411.551-1.172.457-1.751-.181-1.11-1.021-1.925-2.145-2.082-.598-.084-1.373.164-1.842.579-.811.718-1.169,1.887-.625,2.858l1.013,1.809-2.038,1.198-1.111.639c-.156-.075-.206-.28-.226-.447-.138-1.152.867-1.288,1.577-1.867.026-.178-.164-.43-.323-.439-.315.204-.602.397-.985.552-1.104-2.13-.766-4.515,1.014-6.125,1.133-1.026,2.516-1.372,4.025-1.179.964.124,1.803.537,2.532,1.17,1.251,1.087,1.845,2.769,1.595,4.393-.246,1.599-1.181,2.843-2.556,3.636l-3.564,2.057c-.004.19.151.399.34.45l3.668-2.127c1.281-.743,2.186-1.938,2.564-3.379l.143-.796.04-1.397c.004-.123.281-.192.384-.152.162.063.217.241.228.424l.053.887c.346-.334.343-.812.163-1.225-.167-.383-.509-.619-.97-.728-.185-.044-.245-.419-.081-.543.371-.279,1.578.369,1.766,1.315.171.861-.148,1.679-.914,2.069-.103.052-.167.164-.155.285.019.195.402.09.491.244.027.047.02.174-.005.251-.504,1.558-1.505,2.948-2.952,3.783l-7.461,4.308c.011.166.058.272.125.403.719,1.417,1.143,2.924,1.242,4.543h-2.123c-.195-.002-.348-.143-.359-.304-.01-.145.113-.349.282-.352l1.274-.022c-.127-.303-.343-.43-.597-.504-.698-.204-1.363.269-1.522.966-.036.159-.288.245-.4.201-.156-.061-.262-.233-.216-.428.176-.746.781-1.363,1.566-1.405.189-.01.376.022.498-.112-.374-1.406-1.036-2.675-2.009-3.806l-4.591,2.632ZM24.693,20.87l-.007,1.644c0,.079-.118.194-.187.183-.056-.009-.144-.115-.144-.177l-.003-1.62c-.276-.047-.451.088-.632.247-.434.383-.566.974-.266,1.483.258.437.736.683,1.242.597.464-.079.835-.407.971-.939.158-.619-.306-1.308-.974-1.418Z"/>
      <path d="M14.787,43.941c-.161.129-.368.057-.561-.022-.891-.365-1.617-1.094-1.879-2.042-.058-.208-.07-.475-.209-.629-.927-.295-1.792-.59-2.635-1.071l-1.629,1.911-.96-.617c-.474-.305-1.099-.772-.823-1.061.088-.092.296-.144.429-.05l.929.655c.051.036.201-.033.191-.076l-.046-.192c-.104-.439-.385-.749-.723-.906-.431-.201-.842-.078-1.215.155-.091.052-.356.03-.457-.008-.047-.116-.042-.372.021-.477.767-.619,1.868-.557,2.538.162.087.094.169.175.277.248l1.175-1.404c.826.564,1.67.943,2.578,1.284.213.08.439.13.659.098.195-.683.753-.935.302-1.052-.584-.151-1.097-.339-1.673-.623l.769-.966-1.035-.538c-.621.678-1.158,1.626-2.099,1.39-.258-.065-.612-.196-.634-.494l.602-.488c.691-.56,1.124-1.394,1.31-2.274.024-.115.079-.236.171-.293l.53.507c1.597,1.284,3.685,1.892,5.716,1.547,2.195-.373,4.098-1.62,5.23-3.515.318-.532.525-1.066.707-1.658l.197-.907.068-.667c.018-.18.019-.33.096-.506h3.587c.178.623-.486,1.251-1.117,1.254l-1.343.006-.148.71c-.034.163-.061.366-.047.494l1.184.02c-.902,3.513-3.652,6.187-7.168,7.073l.478.822c.023.055.058.155.104.157l.226.013c1.019-.331,1.936-.74,2.888-1.347l.841,1.437c.024.017.102.077.123.058l.128-.113c.652-.577,1.635-.578,2.329-.067.153.113.275.415.173.532-.328.193-.633-.032-.909-.17-.382-.191-.792-.063-1.099.172s-.53.562-.47,1.059l1.074-.695c.103-.067.373-.022.465.036.105.334-.12.564-.372.719l-1.29.795c-.039.024-.145.056-.186.044s-.116-.084-.144-.132l-.774-1.341c-.119-.205-.231-.407-.409-.569-.752.379-1.453.649-2.248.871l-.214.178c-.06.562-.268,1.041-.581,1.489l-.669.642c-.391.375-1.449.649-1.289.462l.093-.108c.434-.262.644-.715.573-1.214-.112-.442-.388-.901-.985-.975l-.022,1.598c-.001.076-.12.188-.189.19-.068.002-.194-.113-.194-.192v-1.399c-.001-.383-.569-.035-.814.352-.391.618-.153,1.315.499,1.718Z"/>
      <path d="M45.604,44.182l-4.007-3.161-.786-.627c-.122-.097-.182-.166-.407-.228l-.007,3.892-2.688-.003-.002-9.237-.028-.198c-.008-.054.199-.048.232-.019l5.202,4.039.041-3.901,2.672.003c.026.357.017.628-.034.962l.002,8.268.024.21c.006.055-.167.038-.216,0Z"/>
      <path d="M54.645,38.112c.807,2.774-1.125,5.574-3.977,5.946l-3.353.004c-.081.028-.165.025-.239-.021v-9.319s3.774.063,3.774.063c.804.013,1.464.461,2.079.887l.553.468.383.447c.378.442.618.969.78,1.525ZM51.62,40.784c.586-.82.603-1.776.104-2.607-.412-.685-1.161-1.142-2.006-1.071l.007,4.601c.8.007,1.469-.328,1.895-.924Z"/>
      <path d="M29.171,54.866c-.044.043-.231.075-.279.027l-.501-.499-1.751-1.743c-.127-.029-.321.026-.427.108l-.009,1.958-2.58-.003v-9.353s3.413.01,3.413.01c.921.003,1.756.457,2.388,1.063,1.486,1.448,1.411,3.773-.19,5.109l1.674,1.672-.695.68-.448.396-.594.574ZM27.835,48.846c-.106-.839-.808-1.27-1.626-1.126l.004,2.385c0,.19.154.305.331.298.819-.032,1.401-.697,1.292-1.558Z"/>
      <path d="M44.951,45.347l2.581.008-.027,6.277c-.003.734-.455,1.44-.908,1.987-.646.781-1.599,1.232-2.597,1.319-1.934.169-3.651-.995-4.238-2.838l-.139-.551-.008-6.194,2.476-.009c.057,0,.189.043.232.078.051.041-.007.195-.007.276l.004,5.529c0,.567.393.995.89,1.19.381.15.76.046,1.108-.204.256-.185.502-.587.512-1l.003-5.575c-.004-.036-.061-.158-.029-.182l.147-.11Z"/>
      <path d="M33.632,50.589c.249,1.026.994,1.878,2.033,1.974.742.068,1.481-.199,2.038-.719l.5.416,1.261,1.276c-.713.768-2.187,1.429-3.099,1.429h-.903c-1.119-.097-2.158-.525-3.003-1.287-1.95-1.759-2.209-4.735-.465-6.819,1.733-2.071,4.901-2.389,7.055-.713.086.067.212.167.25.262l-.746.792-.735.785c-.095.102-.207.172-.347.069-.719-.527-1.658-.703-2.489-.322-1.042.477-1.616,1.757-1.349,2.859Z"/>
      <path d="M15.842,52.573c.69-.034,1.215-.266,1.705-.752l1.026.998.728.724c-1.09,1.064-2.612,1.571-4.094,1.416-2.368-.248-4.322-2.1-4.52-4.45l.004-1.06c.121-1.041.625-2.091,1.352-2.834.791-.809,1.774-1.303,2.899-1.487,1.409-.231,2.815.18,3.961,1.015.077.056.188.124.191.188s-.065.206-.115.259l-.847.887-.457.508c-.046.051-.182.134-.247.125s-.163-.08-.244-.136c-.833-.58-1.914-.609-2.78-.002-.806.565-1.156,1.687-.942,2.663.245,1.116,1.207,1.997,2.382,1.939Z"/>
      <path d="M28.609,30.231l-.055.636-.13.956-1.995.023-1.058.042c-.055.002-.17-.029-.209-.051-.272-.162.271-1.2,1-1.224l1.222-.04c.108-.015.12-.316.132-.431.023-.219.056-.529-.012-.705l-.562-.092-.039-.679c-.086-1.487-.462-2.925-1.118-4.266-.038-.077-.095-.208-.077-.271s.117-.136.201-.185l6.011-3.456c.687-.395,1.326-.767,1.904-1.303l.502-.404c.067-.054.272-.03.338.021.075.058.122.293.061.39-.334.53-.845.652-.769.909.691-.079,1.193-.631,1.208-1.313-.135-.306-.186-.621-.107-.946.344-.085.546.129.64.405.154.453.147.867-.036,1.323-.351.871-1.296,1.346-2.223,1.094-.141-.038-.271-.057-.449-.057-.007.398.414.493.077.687l-3.638,2.098c.687,1.605,1.042,3.224,1.185,4.922l.022,1.935-.057.568-.137,1.032-.632.053-.164.843-.038.212c-.011.06.195.113.245.112.756-.111,1.405.441,1.408,1.222l-3.146.003c-.099,0-.063-.193-.039-.261.332-.925.591-1.846.713-2.82l.1-.801.009-2.083c0-.075-.205-.198-.245-.151-.041.048-.047.156-.046.248l.006,1.804ZM28.019,23.611l-.021,1.76c-.046.073-.291.072-.32-.008l-.012-1.751c-.706.114-1.185.884-.957,1.531.207.589.806.952,1.374.822.558-.127.982-.575.978-1.154-.004-.571-.411-1.11-1.042-1.201Z"/>
      <path d="M31.189,43.105l-.466.949-2.587.015-.242.008c-.056.002-.07-.179-.039-.24l.816-1.579.913-1.781.88-1.703.893-1.74.957-1.845c.12-.231.162-.481.426-.669l2.936,5.783.792,1.575,1.003,1.971-.01.155c-.002.033-.109.056-.143.056h-2.682s-.487-.955-.487-.955h-2.96ZM32.238,40.871l1.073-.037-.575-1.307c-.108.106-.179.188-.222.286l-.378.846c-.025.055.038.215.103.212Z"/>
      <path d="M53.525,54.441c-1.534.971-3.473.616-4.755-.741-.301-.318-.59-.608-.799-.989l1.925-1.068c.055-.03.179-.08.235-.077.182.009.348.66,1.121,1.056.336.172.791.042.919-.328.109-.314-.108-.628-.394-.765l-.942-.451c-1.207-.578-1.915-.902-2.399-2.338v-1.396c.211-.549.417-1.037.853-1.416.594-.517,1.324-.803,2.141-.833.324-.012.721.094,1.035.193.94.297,1.828,1.376,1.572,1.516l-1.673.911c-.073.04-.196.099-.264.113-.192.04-.295-.365-.616-.362-.12.001-.261.087-.358.187-.217.224-.163.56.088.749.712.532,1.749.644,2.574,1.33.557.464.874,1.038.992,1.723.207,1.198-.215,2.328-1.254,2.986Z"/>
      <rect x="19.644" y="45.348" width="2.758" height="9.373"/>
      <path d="M13.224,19.847l.302-.148.043-.72-.003-3.016c0-.219-.015-.384.169-.539.537-.455,1.203-.664,1.903-.579,1.307.158,2.311,1.084,2.561,2.389.289,1.506-.686,3.039-2.249,3.398-1.006.231-1.983-.092-2.726-.785Z"/>
      <path d="M22.519,39.311c-.205-.145-.322-.336-.354-.576,1.793-1.302,3.126-3.058,3.937-5.104.116-.293.216-.534.241-.847l-1.206-.005c-.044-.202-.052-.379-.024-.617l3.233.007-.151.599-1.032.019c-.097.121-.159.29-.215.461-.801,2.445-2.346,4.552-4.429,6.063Z"/>
      <path d="M25.33,39.311c-.036.042-.169.128-.218.103l-.257-.126c-.078-.038-.176-.142-.22-.227.859-.853,1.6-1.782,2.226-2.816l.527-1.024-.604-.045.273-.6,2.921.002c.061.189.059.425,0,.613l-1.808.01c-.504,1.002-1.029,1.934-1.72,2.813l-1.121,1.297Z"/>
      <path d="M5.046,21.742l2.329.004c-.039,1.019-.809,1.777-1.744,1.84-.596.04-1.084-.16-1.465-.574-.451-.49-.707-1.113-.29-1.261.22-.078.424.062.472.297.085.413.429.71.75.806.448.134.876.063,1.198-.219l.114-.1c.033-.029-.046-.187-.1-.186l-1.104.012c-.176.002-.291-.1-.323-.218-.027-.098.013-.402.164-.402Z"/>
      <path d="M14.391.039c.352.089.561.423.61.73.055.344-.057.715-.36.907-.402.256-.86.26-1.195-.042-.32-.289-.407-.783-.203-1.145.222-.393.652-.575,1.147-.45Z"/>
      <path d="M15.027,58.216c0,.578-.469,1.047-1.047,1.047s-1.047-.469-1.047-1.047.469-1.047,1.047-1.047,1.047.469,1.047,1.047ZM14.48,58.174c-.008-.096-.118-.249-.197-.33-.167-.171-.355-.197-.555-.057-.13.092-.242.275-.244.439-.003.238.282.534.524.541.177.005.493-.338.473-.593Z"/>
      <path d="M44.017,58.221c0,.579-.469,1.048-1.048,1.048s-1.048-.469-1.048-1.048.469-1.048,1.048-1.048,1.048.469,1.048,1.048ZM42.84,58.722c.318.142.595-.211.608-.498.012-.279-.247-.578-.558-.516-.237.047-.403.269-.418.463-.017.208.116.439.369.551Z"/>
      <path d="M17.95,59.2l-.601-.004.011-1.168.002-.514c0-.068.003-.16.031-.198.035-.048.196-.01.242.031l.415.368c.12.107.251.174.407.231l.02-.696.601.009.002,1.903c-.131-.011-.276-.063-.363-.139l-.435-.379c-.068-.06-.215-.118-.315-.124l-.018.682Z"/>
      <path d="M45.998,59.259l-.947-.734c-.03-.023-.106-.051-.127-.053-.032-.003-.093.098-.091.136l.037.575c-.207.024-.37.026-.587.007l-.01-1.681c0-.082.082-.23.147-.268l.625.527c.104.088.204.14.345.173l.019-.694.599.012-.009,2Z"/>
      <path d="M15.88,59.156c-.126.066-.356.066-.551.024l-.006-1.889c.179-.004.257.085.381.181l.64.496c.121-.217.078-.351.076-.574-.001-.194.424-.214.583-.067l.009,1.656c0,.047-.05.176-.095.172s-.128-.041-.18-.083l-.63-.509c-.03-.024-.186-.033-.219-.031l-.008.624Z"/>
      <path d="M50.617,59.14c-.144.041-.249-.056-.351-.137l-.739-.586-.047.8-.558-.024.03-2.009,1.084.829.029-.743c.145-.019.334-.022.548-.005l.004,1.876Z"/>
      <path d="M15.831,1.401c-.112-.591.234-1.015.763-1.094.469-.07.934.317.972.84.034.471-.292.816-.74.909-.394.082-.906-.187-.994-.656Z"/>
      <path d="M2.899,23.328c.161.543-.109,1.011-.622,1.167-.338.103-.696-.083-.88-.314-.225-.284-.289-.667-.086-.975.199-.302.501-.471.847-.437.306.031.636.206.741.558Z"/>
      <path d="M52.036,57.378c.061-.188.455-.184.596-.071l-.002,1.166c0,.433-.34.721-.727.763-.329.036-.856-.133-.871-.549l-.046-1.33c.036-.16.544-.195.553.019l.045,1.064c.003.066.136.177.19.2.062.026.229-.125.232-.202l.031-1.06Z"/>
      <path d="M30.597,58.841c.042.085-.182.342-.378.365-.167.019-.292-.431-.449-.337-.057.034-.076.171-.09.323-.114.019-.352.014-.549-.003l-.007-1.91.507-.043c.319-.027.62.086.79.323.175.244.165.597-.016.868-.118.178.087.2.192.415ZM29.788,58.234c.085.027.201-.157.198-.236-.003-.073-.103-.212-.178-.198-.174.033-.178.382-.02.434Z"/>
      <path d="M53.873,58.476l-.257-.005c-.037,0-.027.144-.008.169l.671.014c.042.146.043.337.018.551h-1.322s-.003-1.934-.003-1.934l1.301-.029c.052.135.057.326.021.487l-.571.033c-.048.003-.152.081-.148.124.004.044.089.125.134.128l.437.033c.071.012.052.234.015.301s-.2.128-.286.127Z"/>
      <path d="M20.59,58.431l-.494.045c-.038.003-.064.134-.047.166l.687.008.013.557-1.328-.002.003-1.946,1.291-.017c.069.141.069.373.003.501l-.525.004c-.058,0-.172.083-.173.141-.002.057.117.144.176.144h.407s-.013.4-.013.4Z"/>
      <path d="M31.609,58.644l.595.012-.012.549-1.212.005c-.063-.01-.092-.195-.09-.258l.017-.596-.039-.785c-.005-.107.048-.323.155-.323l1.145-.002c.046.137.049.312.024.487l-.579.03c-.045.002-.152.083-.144.127s.095.115.141.12l.406.044c.035.083.046.297-.023.34s-.241.078-.325.08l-.151.002c-.022,0-.046.055-.039.077.01.032.094.091.131.092Z"/>
      <path d="M37.151,58.453l-.576.034c.008.064.108.167.167.167h.565s.013.554.013.554l-1.293.003.005-1.957,1.112-.014c.048,0,.165.041.184.078.023.046.029.157.015.208l-.057.212c-.035.132-.593-.184-.736.227l.585.077.016.411Z"/>
      <path d="M11.715,58.19c-.005.2.075.366.214.459.162.108.344.059.559-.083.125.09.267.224.387.367-.312.382-.821.408-1.214.208-.407-.206-.612-.632-.545-1.123.05-.366.343-.648.636-.745.389-.129.777-.132,1.08.194-.085.156-.27.354-.401.398-.167-.08-.343-.161-.462-.093-.14.079-.249.246-.254.419Z"/>
      <path d="M21.933,58.719l.47-.138c.123.099.261.247.364.398-.41.349-.94.359-1.336.095-.425-.282-.553-.801-.355-1.32s1.035-.741,1.617-.353c-.013.183-.24.477-.381.435-.162-.048-.293-.104-.437-.088-.111.012-.242.181-.283.325-.07.247.043.531.341.645Z"/>
      <path d="M40.675,58.07c-.073.141-.002.319.07.432.26.405.592.037.817.121.114.043.26.227.254.368-.315.294-.868.349-1.225.119-.374-.241-.644-.706-.488-1.146.118-.335.329-.609.652-.7.361-.102.778-.118,1.043.166,0,.161-.221.409-.38.408-.137-.039-.289-.101-.41-.086-.108.013-.251.158-.334.319Z"/>
      <path d="M27.807,58.489c.198.238.359.263.645.129.149-.07.413.185.426.349-.171.263-.549.316-.839.273-.617-.092-.979-.595-.88-1.225.094-.598.705-.912,1.298-.78.162.036.378.085.399.292l-.35.365c-.238-.2-.465-.198-.637-.026-.174.174-.213.442-.062.624Z"/>
      <path d="M33.782,59.208c-.134-.17-.216-.243-.388-.244-.417-.002-.4.4-1.059.211l.878-1.721c.033-.065.1-.161.155-.172.068-.013.144.108.181.185l.841,1.725-.608.015Z"/>
      <path d="M19.188,2.754c-.28.091-.557.059-.751-.102-.238-.197-.303-.464-.243-.784.063-.336.371-.544.694-.558.347-.016.637.2.771.554.135.358-.103.77-.471.889Z"/>
      <path d="M3.022,20.618c.384.091.524.464.47.839-.052.366-.385.63-.757.616-.347-.013-.632-.258-.722-.645-.066-.284.113-.704.479-.806.127-.035.4-.035.529-.004Z"/>
      <path d="M24.02,59.16c-.171.056-.387.06-.609.024l-.022-1.317c-.034-.105-.32-.101-.419-.092-.144-.079-.154-.368-.057-.531l1.549.003c.115.125.091.479-.049.509l-.393.048v1.355Z"/>
      <path d="M47.298,59.164c-.156.049-.39.054-.6.023l-.029-1.32c-.003-.127-.306-.145-.441-.054-.048-.18-.051-.353-.027-.565l1.605-.005c.005.203-.004.389-.041.569-.143-.086-.445-.069-.447.051l-.021,1.3Z"/>
      <path d="M35.301,59.203l-.561.005-.008-1.439-.457-.033c-.115-.037-.15-.422-.027-.474l1.506-.02c.06.125.074.409-.008.473l-.439.107-.005,1.381Z"/>
      <path d="M3.195,19.53c-.048-.414.105-.684.45-.79.394-.121.762.09.88.467.115.366-.112.75-.489.862-.335.099-.793-.133-.841-.539Z"/>
      <path d="M5.231,20.023c.341-.134.744.072.823.382.09.355-.037.689-.407.818-.279.097-.646-.038-.774-.354s-.017-.698.358-.845Z"/>
      <path d="M19.999,3.375c-.027-.255.211-.564.44-.635.393-.121.741.092.813.461.064.329-.101.683-.49.761-.323.065-.714-.135-.763-.587Z"/>
      <polygon points="48.591 59.192 47.973 59.21 47.983 57.255 48.587 57.255 48.591 59.192"/>
      <path d="M4.583,18.002c-.068-.256.132-.485.305-.576.24-.125.539-.102.705.109.161.205.173.451.064.661-.108.208-.3.308-.57.286-.213-.018-.426-.182-.505-.48Z"/>
      <path d="M6.309,16.308c.301-.105.549.018.676.319.089.212-.055.526-.309.629-.249.102-.516-.007-.655-.279-.123-.241-.018-.563.287-.669Z"/>
      <path d="M38.898,58.46c-.064.03-.272.021-.339-.013-.11-.056-.154-.332-.051-.429.13-.122.286-.127.432-.022.141.102.165.366-.042.463Z"/>
      <path d="M25.96,58.457c-.246.088-.467-.038-.473-.263-.003-.101.164-.263.261-.277.118-.016.268.074.322.169.066.116.013.326-.111.371Z"/>
      <path d="M7.348,35.195h-2.693c-.14-.141-.148-.42-.014-.614l2.675-.007c.044.196.048.395.031.621Z"/>
    </g>
  </g>
</svg>