<?xml version="1.0" encoding="UTF-8"?>
<svg id="b" data-name="Layer 2" xmlns="http://www.w3.org/2000/svg" width="60.571" height="58.088" viewBox="0 0 60.571 58.088">
  <g id="c" data-name="Layer 1">
    <g>
      <path d="M60.571,22.165v.284l-.194.197c-.454,1.11-1.519,1.797-2.723,1.728-1.377.087-2.592-.69-3.105-1.974-.524-1.309-.104-2.807.994-3.719-1.315-3.183-3.182-6.071-5.518-8.568l-1.044-1.048c-.953-.956-2.005-1.767-3.128-2.542-3.41-2.352-7.272-3.961-11.365-4.659-5.325-.909-10.548-.218-15.474,1.917-1.653.716-3.314,1.665-4.816,2.646-.436.285-.798.616-1.259.879-.137.078-.299.247-.395.383-.128.181-.05.442.051.618l.496.857c.501.866.698,1.791.711,2.793.02,1.591-.517,3.082-1.595,4.265-2.341,2.568-6.355,2.704-8.95.362-1.122-1.013-2.155-2.558-1.999-4.122l.853,2.073c.309.75.907.823,1.445,1.418.698.77,1.57.9,2.554,1.212.573.182,1.37.26,1.39-.016.023-.317-.786-.173-1.385-.508-.392-.009-.707-.236-.871-.585-.814-.439-1.542-.946-1.906-1.805-.391-.243-.356-.684-.314-1.206.302-.038.601-.009.868-.095.927-.302,1.523-1.128,1.76-2.046.306-1.031-.028-2.084-.925-2.701-.031-.073-.038-.249-.002-.328.095-.205.482-.086.596-.459,1.692-.908,3.909-.341,5.212,1.047.181.193.263.414.593.485-.026-.516-.062-1.02-.139-1.533-.039-.263-.184-.405-.416-.498-.252-.1-.473-.27-.71-.415-.42-.256-.911-.313-1.399-.401-.493-.089-1.003-.254-1.502-.169-.599.102-1.16.217-1.749.38-.625.174-1.716,1.005-1.649.733l.05-.203c.953-.717,2.048-1.072,3.233-1.153.461-.019.909-.008,1.38.021.863.053,2.159.552,2.846,1.089l.409-.263.087.374c.061.048.282.04.37-.012.104-.061.171-.181.228-.327l.309-.116c.035-.242.226-.331.431-.353.141-.231.351-.331.561-.466l.453-.292.086-.295c.793-.603,1.807-1.104,2.535-1.667.178-.137.316-.384.539-.469l1.224-.466c.057-.022.24.077.261.027l.083-.198.731-.32c.242-.106.466-.133.743-.097l.183-.193.624-.298.341.012.879-.304.293.115c.059.023.139-.132.182-.215.619-.174,1.275-.356,1.917-.467.297-.052.475-.106.732-.3l.104.371.194-.209c.256.143.628.089.647.046l.081-.174.213.119c.051.029.117-.092.117-.219.473-.101,1.034-.186,1.529-.042.284.082.579.209.774-.098l2.116.007c.216.454.742-.176,1.116.12.108.085.265.198.369.077.09-.105.221-.181.341-.156.081.017.158.128.223.234.095.154.412.116.536-.05l.109.202c.017.031.148.054.183.044l.45-.138.181.228c.141-.125.464-.214.58-.067.209.264.494.306.734.121.057-.044.241-.076.29-.028.041.04.058.142.075.273,1.775.367,3.492.966,5.178,1.683,4.721,2.008,8.785,5.203,11.833,9.315l.299.041c.213.57.665.613.452.963.318.061.601.497.82.85l.409.66c.277.447-.089.808.171.783.206-.02.262.135.353.27.119.177.277.327.296.545.032.35.231.599.534.758l.008.744.687.471c.897-.05,1.762.205,2.478.809-.284.429-.48-.168-.838.09l-.113-.197c-.408-.315-.988-.445-1.484-.305-.302.085-.46.393-.314.625.088.006.264.014.291-.036l.098-.181c.605.326.921-.21,1.318.278.084.103.336.135.462.138l.078.193c.032.08.333.046.333.157v.169s.257.439.257.439c.224.091.319.262.221.492-.155.364.191.37.193.562,0,.069-.11.176-.191.232-.038.395-.251.723-.481,1.066l-.352.525-.522.214c-.546.224-1.103.366-1.685.24-.058-.013-.24-.008-.247.05l-.029.249c-.007.059,1.544.616,2.642-.3l.73-.737.195-.582.252.026Z"/>
      <path d="M44.59,39.82c-.365.313-.7.689-1.137.839-.188.065-.309.116-.468.215l-.697.435c-.323.202-.664.318-1.034.43-.277.084-.543.319-.83.389-2.17.53-3.295.837-5.627.525l-1.061-.331c-.661-.206-1.17-.628-1.565-1.188-.434-.113-.692-.434-.813-.876l-.51-.316c-.456-.283-.896-.444-1.416-.202-.575.267-.973.052-1.178.245l-.439.414-.868.434c-1.306.654-2.659,1.055-4.119,1.206-.351.036-.662.147-.919.388-.731-.07-1.444-.085-2.18-.052-.541.024-1.019-.084-1.53-.219l-1.075-.284c-.953-.359-1.767-.948-2.457-1.686l-1.017-1.518c-.645-1.733-.938-3.533-.873-5.397.033-.943.115-1.855.324-2.768.385-1.685.934-3.085,1.617-4.655.256-.589.549-1.158.883-1.702.275-.448.608-.815.704-1.368.047-.267.241-.453.399-.665l.816-1.091c.448-.599.963-1.081,1.545-1.543l1.134-1.108,1.142-.827c.053-.244.211-.407.431-.525.601-.272,1.146-.609,1.664-1.017.473-.373.981-.523,1.518-.747l1.142-.477c.444-.186.83-.439,1.293-.562l1.43-.379c.304-.081.57-.177.895-.213.292-.032.6-.136.894-.148l2.208-.085c.588-.023,1.177.033,1.765.036.852.005,1.609.251,2.413.486l1.007.293c.403.117.847.174,1.225.354l.997.474c.419.199.8.493,1.193.764.78.537.686,1.232.766,1.992.017.157-.169.367-.18,1.079,0,.035.158.119.143.15l-.08.167-.424,1.551c-.065.237-.215.501-.255.744l-.125.765-.456,1.799c-.138.546-.244,1.081-.087,1.624-.296.375-.251.777-.241,1.206l-.122,1.282v.626s.131,2.23.131,2.23c.036.615.399.998.846,1.359.251.202.447.399.799.456.554.091,1.136.072,1.649-.201l2.113-1.124c.254-.135.417-.264.624-.457.997-.928,2.002-1.45,3.342-1.749.472-.105,1.053-.092,1.398.276.184.196.349.591.434.832l-.108,1.067c-.04.39-.138.725-.325,1.072l-.624,1.158-.276.225c-.061.049-.015.251-.016.404,0,.112-.29.209-.352.308l-.561.89c-.336.534-.79.265-.803.935-.702.454-1.044,1.254-1.59,1.542-.214.113-.242.208-.367.397-.262.396-.765.62-1.15.902-.19.331-.476.574-.928.51ZM23.581,31.255c.131.648,1.276,1.23,1.903,1.136.865-.129,1.704-.527,2.321-1.136l1.443-1.425c.304-.301.444-.753.718-1.076.309-.364.559-.703.783-1.127.68-1.292,1.153-2.91.812-4.333-.084-.351-.312-.739-.673-.837l-.891-.24c-.323-.087-.637-.082-.94.075l-.697.359c-.315-.024-.569.058-.635.388-.548.28-.998.653-1.422,1.103l-.385.211-.084.485c-.284.013-.257.324-.353.43-.392.432-.633.868-.891,1.378l-.429.849c-.119.235-.213.483-.362.698-.253.365-.287.789-.109,1.197-.213.372-.147.716-.066,1.102l-.042.764Z"/>
      <path d="M56.885,50.991c-.967.908-2.114,1.43-3.42,1.547-1.444.129-2.596-.025-3.909-.676-.327-.162-.766-.391-1.106-.12l-.684.546c-.099.079-.216.077-.353-.017-4.644,3.472-10.189,5.483-15.992,5.813l-2.854.006c-2.411-.147-4.731-.547-7.044-1.247-3.541-1.07-5.902-2.322-8.869-4.482-.988-.719-1.893-1.443-2.778-2.277l-1.613-1.704c-.241-.031-.41-.176-.399-.431l-1.151-1.436-.902-1.295c-.414-.155-.331-.497-.749-.701.022-.261-.023-.51-.144-.757l-1.368-2.779c-.132-.268-.27-.549-.556-.687-.324-.156-.97.153-1.26-.294l1.052-.03c.279-.008.47-.31.358-.561l-1.507.026c-.277-.09-.494-.209-.647-.441-.417-.196-.736-.51-.814-.958-.08-.05-.16-.128-.157-.183s.087-.163.141-.194l.494-.28c.329-.186.587-.47.661-.85.067-.345-.046-.641-.319-.86-.107-.086-.083-.358.049-.424l.68-.339c-.253-.666-1.044-.189-1.726.248-.005-.3.223-.493.463-.666,1.63-1.168,3.913-.665,4.897,1.097.648,1.16.306,2.853-.58,3.782-.24.251-.318.551-.154.88l1.124,2.248c1.132,2.118,2.562,4.021,4.213,5.754l.99.989c1.289,1.188,2.598,2.339,4.139,3.196l2.742,1.524c1.696.855,3.453,1.494,5.279,1.95l.092-.107c.018-.021.118-.027.11,0l-.057.184,1.862.379c1.006.205,1.972.351,2.992.389,1.197.044,2.363.079,3.564,0l3.086-.36c.262.031.491-.045.689-.21.489-.006.888-.15,1.36-.274,3.732-.985,7.22-2.658,10.251-5.051.155-.122.184-.315.128-.493l-.559-1.75c-.064-.2-.183-.346-.386-.459.26-.174.032-.356.025-.521l-.101-2.35c-.019-.45.031-.883.21-1.29l.636-1.442c.188-.427.527-.728.861-1.048l.508-.485,1.032-.617c.251-.15.602-.356.896-.35.285.006.499-.14.753-.171.719-.09,1.467-.047,2.209-.015l.902.197c.728.159,1.391.483,1.923.997l.946.794c1.18,1.358,1.625,1.924,1.857,3.873.145,1.214-.119,2.432-.654,3.514-.336.68-.802,1.228-1.361,1.754Z"/>
    </g>
  </g>
</svg>