<?xml version="1.0" encoding="UTF-8"?>
<svg id="b" data-name="Layer 2" xmlns="http://www.w3.org/2000/svg" width="120.283" height="61.742" viewBox="0 0 120.283 61.742">
  <g id="c" data-name="Layer 1">
    <g>
      <path d="M.004,32.604l-.004-.779c.189-1.875.682-3.773,1.93-5.256,1.097-1.304,2.766-1.89,4.342-1.27l-1.154,4.646c-.522-.24-1.174-.389-1.597-.033-.895.754-.651,2.02.198,2.744,1.302,1.111,4.134,2.758,5.319,2.01.855-.54.819-1.693.175-2.381l-1.238-.823,1.183-4.785c1.964.94,3.275,2.612,3.463,4.739.191,2.157-.382,4.401-1.696,6.093-2.231,2.876-6.099,2.053-8.698-.241C.823,36.028.15,34.387.004,32.604Z"/>
      <polygon points="108.536 25.068 112.826 34.8 115.51 37.464 113.403 41.384 110.763 38.852 102.281 36.359 104.537 32.131 108.068 33.519 105.969 29.44 108.361 24.95 107.348 24.53 108.662 14.578 111.418 15.749 110.679 21.235 112.27 21.945 112.867 17.464 115.621 18.659 115.032 23.132 116.789 23.926 117.529 18.429 120.283 19.648 118.959 29.593 108.536 25.068"/>
      <polygon points="55.176 42.598 43.155 46.563 40.204 42.261 42.45 40.074 45.397 37.148 38.303 39.462 35.935 35.966 47.968 32.009 51.062 36.537 49.525 38.012 46.321 41.209 52.813 39.114 55.176 42.598"/>
      <polygon points="52.802 14.774 48.484 13.531 51.032 9.48 48.233 8.646 45.665 12.695 41.348 11.442 48.129 .729 52.433 1.982 50.031 5.801 52.835 6.625 55.26 2.813 59.568 4.071 52.802 14.774"/>
      <polygon points="76.093 61.742 71.617 61.268 73.439 56.85 70.54 56.492 68.701 60.932 64.239 60.431 69.081 48.725 73.539 49.225 71.826 53.4 74.734 53.726 76.471 49.553 80.927 50.064 76.093 61.742"/>
      <path d="M67.938,31.562l-2.403-4.293,3.713-2.509-.469-.815-4.507,1.035-2.174-3.937,12.335-2.854,2.889,5.19c.413.742.766,1.484.946,2.299.275,1.433-.394,2.689-1.689,3.275-1.538.697-3.221.365-4.467-.887l-4.174,3.496ZM74.616,24.665c.085-.201.015-.665-.075-.828l-.597-1.088-2.624.611.766,1.248c.252.41.801.726,1.208.731.488.005,1.089-.124,1.322-.674Z"/>
      <path d="M102.293,47.35l-.671.645,1.983,4.144-3.376,2.992-5.464-11.45,4.445-3.938c.748-.663,1.487-1.253,2.44-1.575.882-.212,1.792-.147,2.484.429,1.632,1.302,1.905,3.533.76,5.212l4.341,3.321-3.666,3.261-2.332-2.185-.944-.857ZM101.547,44.584c.715-.69.599-1.861-.225-2.392-.277-.179-.808-.049-1.045.158l-.952.834,1.164,2.42,1.057-1.02Z"/>
      <path d="M14.438,23.794l.924,2.161-2.964,3.75-5.1-13.193,3.912-4.953,9.66,7.434-2.832,3.567-1.544-1.334-2.056,2.568ZM14.221,19.139l-3.035-2.628,1.817,4.157,1.218-1.529Z"/>
      <path d="M37.025,7.799l4.912-.751c-.2,3.383-2.405,5.35-5.646,5.893-1.23.206-2.427.229-3.627-.101-1.888-.519-3.218-2.025-3.528-3.958-.526-3.276.792-6.632,3.879-8.023,1.855-.836,3.928-1.087,5.896-.639,1.791.407,3.152,1.768,3.227,3.637l-4.738.714c.003-.667-.135-1.309-.714-1.557-.918-.392-1.942.196-2.286,1.153-.656,1.826-1.071,5.491.377,5.984.519.176,1.162.062,1.533-.294.545-.524.706-1.216.716-2.057Z"/>
      <polygon points="90.459 54.383 86.06 55.554 86.041 57.469 91.377 56.053 91.322 59.067 81.623 61.645 81.868 48.967 91.57 46.393 91.513 49.385 86.171 50.805 86.152 52.53 90.482 51.378 90.459 54.383"/>
      <polygon points="64.62 17.622 61.081 14.789 59.517 15.892 63.818 19.358 61.353 21.1 53.538 14.793 63.895 7.494 71.709 13.795 69.278 15.527 64.962 12.056 63.555 13.05 67.063 15.883 64.62 17.622"/>
      <path d="M81.363,37.071c.564,2.85.273,6.441-2.895,6.547l-.512-4.409c.408-.047.779-.151.905-.359.141-.23.153-.631.079-.914-.102-.393-.43-.669-.783-.739-.404-.081-.761.233-.915.646l-1.093,2.935c-.279.748-.881,1.501-1.629,1.798-2.031.808-4.197-.252-5.064-2.196-.875-1.96-1.229-4.873-.555-6.844.432-1.262,1.513-2.116,2.887-2.033l.544,4.544c-.321.036-.661.091-.848.227-.234.169-.311.583-.287.896.037.501.344.868.797.969.41.091.9-.229,1.062-.693l.72-2.071c.348-1.002.859-1.987,1.837-2.514,1.282-.691,2.9-.35,3.981.636,1.016.927,1.503,2.23,1.769,3.574Z"/>
      <polygon points="56.622 56.764 52.674 54.664 53.484 53.781 56.833 50.339 59.06 48.022 56.105 46.452 58.542 43.98 68.416 49.262 65.988 51.73 63.062 50.166 60.069 53.232 56.622 56.764"/>
      <polygon points="26.038 16.133 22.184 18.47 19.766 9.573 16.904 11.299 16.005 7.965 25.555 2.175 26.49 5.496 23.623 7.236 26.038 16.133"/>
      <polygon points="47.492 31.047 34.822 31.214 33.52 26.896 46.19 26.733 47.492 31.047"/>
    </g>
  </g>
</svg>