<?xml version="1.0" encoding="UTF-8"?>
<svg id="b" data-name="Layer 2" xmlns="http://www.w3.org/2000/svg" width="48.373" height="60.249" viewBox="0 0 48.373 60.249">
  <g id="c" data-name="Layer 1">
    <g>
      <path d="M21.71,39.915c-.081-.158-.383-.291-.529-.148l-.443.434c-.022.103-.07.346-.063.444l.052.668c.006.082.114.241.148.323l.286.681.295.653.279.586c.164.346.363.866.297,1.181l-.13.615c.007.178-.067.314-.201.404-.039.161-.102.307-.195.426l-.325.414c-.481.614-1.069,1.03-1.798,1.301l-.453.169c-.272.101-.53.054-1.055.161-.23.047-.557.035-.799.001l-.746-.106c-.111-.016-.345-.091-.45-.14l-.422-.199c-.642-.303-1.111-.815-1.552-1.357-.052-.064-.106-.241-.132-.321-.179-.227-.29-.451-.33-.751l-.177-.516.009-2.057.089-.471.086-.346c.081-.325.059-.758-.002-1.105l-.248-.736c-.115-.341-.775-.715-.898-.716l-1.063-.006-.61.408-.383.284c-.41.398-.794.741-1.265,1.036l-.754.473-.403.19-.548.044c-.312.104-.55.144-.839-.01l-.629-.027-.526-.218-.483-.221-.647-.324-.353-.215c-.451-.275-.904-.497-1.391-.695-.184-.075-.333-.103-.556-.108-.306-.007-.633-.102-.945-.085-.237.013-.482.233-.735.008-.098-.088-.037-.356.129-.433l.857-.399c.193-.015.403-.023.617-.13.247-.123.584-.074.865-.091.405-.025.73.05,1.085.209.12.003.262.026.364.076l.694.338c.267.13.558.347.833.417.371.094.756.14,1.094.06.16-.038.322-.059.47-.069l.629-.357c.072-.041.203-.121.263-.18l.903-.885.32-.185.416-.321.411-.134.621-.249-.166-.693-.148-.461-.177-.642-.193-.725-.175-.622-.211-.775-.088-.53-.178-.442-.105-.459-.206-.652-.124-.598-.182-.718-.117-.496-.221-.518-.042-.41c-.118-.211-.162-.413-.201-.644l-.092-.551-.164-.412-.116-.476c-.07-.285-.091-.454-.219-.713l-.107-.536-.174-.639-.165-.609c-.048-.178-.071-.308-.183-.461l-.044-.451-.204-.648-.146-.535-.177-.734-.116-.474c-.064-.263-.162-.448-.216-.703l-.094-.447c-.11-.233-.221-.413-.203-.69l-.109-.275c.059-.245-.093-.433-.137-.632l-.124-.564-.199-.631-.159-.582-.208-.848c-.073-.298-.192-.592-.302-.901.082-.146.229-.308.37-.407l.696-.488.359-.252c.326-.229.685-.389,1.02-.61l.371-.244.5-.281,1.083-.603.394-.174.747-.381.347-.151.722-.317.815-.35.558-.21.513-.207.43-.119.497-.175,1.014-.354c.224-.002.436-.05.623-.135l.683-.166.555-.116.847-.232.529-.034c.284-.127.543-.188.859-.169.203.012.373-.07.578-.083l.805-.051.522-.095.468-.073c.311-.049.723-.024,1.041-.025l.241-.111,3.065.021c.182.001.422.112.623.095.343-.03.641.026.961.075l.74.113.696.052c.206.015.373.091.577.081.335-.017.604.047.906.177l.485.021.79.23.556.119.776.191.576.142.536.18.39.118.544.2.52.137.393.169.518.208.94.385.353.155.771.34.636.335.321.133,1.551.869,1.356.831,1.06.734.405.257c.16.298-.033.56-.097.83l-.15.631-.182.701-.169.575-.177.653-.152.538-.13.586c-.056.252-.133.411-.203.662l-.132.477c-.026.093-.045.298-.088.39-.216.468-.122.551-.228.913l-.192.658-.106.393-.232.734-.038.412c-.102.202-.127.352-.186.573l-.14.521-.198.651-.123.624c-.032.16-.236.42-.184.611.017.062-.041.225-.059.282l-.204.647-.098.443-.217.739-.121.493-.216.735-.162.618-.13.599c-.055.252-.104.423-.204.664l-.124.522c-.04.169-.061.311-.135.45-.097.182-.082.342-.138.558l-.134.523-.165.529-.123.534c-.075.324-.169.541-.218.867l-.163.547-.173.614-.162.577-.12.495-.217.79-.096.468-.171.35-.082.494c-.001.237-.075.44-.228.614-.007.211-.033.426-.104.617l-.345.931c.021.02.08.076.078.077-.003,0,.067-.058.083-.076l.381-.442.927-1.082.379-.527,1.293-1.899.261-.373c.64-.915,1.954-2.085,2.984-2.449l.576-.204.394-.109,1.491.006.433.115c.226.06.452.135.649.254l.411.249.739.732.309.45.229.4c.178.311.109.656.364.894l.015.679c.001.047-.062.161-.096.188-.043.034-.153-.057-.187-.108l-.248-.373-.388-.564c-.426-.62-1.116-1.412-1.83-1.474l-.629-.054c-.293-.025-.938.101-1.132.2l-.709.361-.448.316-.421.321-.384.295-.256.236-.509.615-.62.948-.435.796-.437.753-.673.958c-.209.297-.52.578-.805.804l-.382.303c-.241.192-.537.334-.822.464l-.362.166c-.139.064-.34.077-.508.11-.286.057-.597.149-.901.08l-.508-.114-1.627-.551-.657-.226-.471-.16c-.252.018-.47-.018-.687-.174-.629.012-1.294-.069-1.913.041l-.638.152-.895.275c-.208.064-.554-.008-.772.053-.467.131-.865.118-1.326-.001l-.796-.051c-.758-.203-1.453-.533-1.914-1.182l-.188-.306-.379-.794-.707-1.38ZM25.392,24.819c.446.023.778.274,1.11.478.212.13.413.255.576.439l.579.652c.232.262.421.62.502.945.053.213.078.314.208.5l.071.714.005,8.373-.003.473-.011.983-.013.423-.008,2.553c0,.083.264.066.318-.002.078-.098.254-.163.397-.154.231.015.694-.208,1.786-.084.131.015.309.105.458.083.203-.03.291.104.466.159l.447.14.477.151.689.284,1.184.524.25-.988.125-.601.201-.642.132-.499.17-.705c.067-.276.081-.418.211-.646l.106-.556.208-.576.155-.59c-.029-.217.034-.412.172-.561.012-.221.031-.431.094-.627l.218-.674.108-.506.214-.792.166-.587.139-.454c.029-.281.08-.463.229-.686.008-.204.049-.425.111-.605-.002-.263.059-.409.181-.633.108-.198.084-.603.18-.818.112-.25.182-.419.173-.691l.094-.271c0-.264.091-.427.188-.662l.12-.475.191-.572.042-.41.228-.736.098-.515.181-.342.098-.57.148-.592.367-1.205.11-.54c.054-.266.047-.443.238-.651.007-.108-.004-.36.031-.462l.179-.509.118-.456.234-.872.084-.371.294-1.012.159-.579.129-.652c.043-.215.083-.37.219-.53l.07-.442c.012-.074.097-.252.052-.313-.038-.052-.145-.115-.224-.15-.202-.087-.331-.224-.506-.329l-1.483-.89-1.274-.695-.769-.355-.729-.326-1.468-.623-.465-.163-1.03-.358-.554-.183-.544-.119c-.219-.048-.352-.13-.569-.175l-.465-.097-.54-.188c-.268-.018-.418-.047-.647-.096-.246-.053-.564.008-.791-.124-.181-.105-.335-.111-.545-.139l-.786-.105c-.334.022-.65-.049-.952-.168l-1.849-.026-.507-.091c-.781.002-1.5.067-2.267.09l-1.877.055-.452.101-.774.069c-.305.063-.599.099-.915.1-.266.174-.567.256-.91.199l-.367.136c-.343-.064-.55.035-.839.178l-.48.109-.618.173-.552.123c-.221.049-.377.132-.597.2l-.424.132-.486.186-.533.216c-.185.075-.377.131-.557.17l-.708.328-.773.335-.638.315-.371.181c-.451.22-.889.443-1.313.701l-2.093,1.274c.053.34.094.69.215.947.102.217.13.345.179.595l.115.586.216.686c.041.131.076.366.125.476.078.178.115.29.147.497.041.27.156.554.22.825l.121.507.204.684.12.563.201.713.103.49.226.631.107.545c.045.229.146.358.162.595.005.08.037.209.06.288l.218.738.118.442.144.49c.049.165.078.327.126.501l.18.651.13.456.216.796.108.545c.052.26.155.433.22.683l.114.44.181.623.086.531.176.506.099.467.222.637.08.369.168.642.109.487.235.729c.044.137.058.307.076.486l.181.451.09.607c.017.113.038.365.131.419.489.284.841.214,1.307.541l.408.287c.624.438.842.941,1.129,1.619l.004,4.036.226.774.117.479c.036.148.201.446.325.534l.566.398,1.511-.004.315-.131c.283-.117.575-.225.812-.419.354-.289.607-.643.503-1.135.061-.333-.046-.665-.232-.942l-.368-1.072-.089-.475-.208-.766.027-1.253c.119-.767.505-1.357,1.099-1.832l.002-9.953c.067-.121.109-.243.107-.361-.002-.196.073-.31.143-.473.147-.342.261-.706.528-.992l.622-.668c.447-.48,1.028-.856,1.69-.959.758-.285,1.532-.325,2.315.009ZM23.363,26.198c.115-.054.263-.156.373-.148.356.026.773-.061,1.078.052l.582.215.601.352c.107.063.305.228.372.336l.521.838.163.463.003,9.794c0,.071-.072.199-.122.246l-3.529-.007-.68-.102.172.327h4.443s-.004-9.592-.004-9.592l-.096-.734c.011-.342-.115-.588-.275-.861-.46-.782-1.172-1.362-2.096-1.575-.371-.085-.82-.034-1.255-.046l-.826.327c-.181.074-.384.282-.565.402-.347.23-.867,1.013-.935,1.476-.035.239-.122.457-.239.679v9.162c.189.082.393-.073.391-.253l-.019-2.07-.014-.797-.004-1.005-.004-.815-.003-3.611.016-.398.062-.665c.021-.221.21-.678.385-.884l.3-.355.367-.333c.219-.199.552-.284.838-.417ZM26.204,37.48v-8.453c0-.312-.067-.555-.17-.831-.208-.561-.484-.752-.985-1.054-.176-.106-.355-.153-.577-.153h-.564c-.409,0-.994.457-1.28.826-.172.222-.263.536-.409.833l-.003,8.843,3.989-.012ZM27.224,39.621c.079,0,.245-.117.229-.188s-.113-.174-.2-.251l-3.907.007c.012.206.107.372.224.431h3.654ZM26.792,40.337h-2.484s-.512-.099-.512-.099c.003.182.132.395.282.451l3.349-.003c.027-.195-.061-.32-.164-.406-.148-.123-.327.057-.47.057ZM27.069,41.813l.346-.21c.052-.032-.018-.205-.071-.24-.044-.029-.164-.059-.23-.059l-2.522.013c.178.196.367.327.55.37l.456.106,1.47.02Z"/>
      <path d="M39.01,56.242c-.76.162-2.045.131-2.292-.468l-.231-.56-.007-1.217c0-.07-.083-.24-.105-.305v-7.709c.296-.203.584-.286.956-.247l.502-.093,1.342-.032c.282-.007.52.114.652.37.217.071.304.265.219.498.176.332.212.73.023,1.062v1.837c.231.073.449.118.677.094l.514-.055.791-.109c.206-.028.431-.079.53-.265-.025-.084-.094-.259-.094-.337v-5.879s.051-.395.051-.395c.051-.403.005-.804.204-1.165l.318-.574c.182-.329.538-.658.868-.849l1.137-.449c.203-.08.444-.143.635-.096l.256.288v1.326s.111.24.111.24v10.402s-.107.358-.107.358l.025,2.338.094.628c.075.501-.204.953-.612,1.224l-.538.086c-.401.064-.897.06-1.302.01l-.813-.101c-.061-.074-.196-.311-.205-.425l-.105-1.466-.033-1.614c-.002-.082-.199-.005-.267.003l-.994.126c-.383.048-.731.03-1.138-.01l-.02,3.213c-.002.243-.4.179-.542.21l-.499.107Z"/>
      <path d="M48.373,59.956c-.205.294-.514.337-.863.258H.417c-.373-.197-.41-.566-.416-.963-.005-.349.066-.811.475-.94h47.541c.137.063.295.218.355.326v1.319Z"/>
      <path d="M10.552,53.595c.084.044.275.192.279.287l.046.957c.012.243.13.358-.02.591l-.021.573c-.27.185-.563.246-.901.242l-.622-.109-3.239-.01-.268.01-.438.057-1.239.066-1.209.036c-.227.007-.491-.208-.49-.464l.002-10.895c.161-.307.537-.347.826-.395l.738-.123.609-.148.466-.124c.393-.016.74-.077,1.126-.171l.515-.125.741-.032c.588-.344,1.007-.103,1.441-.296l.469-.042.452-.122c.256-.069.469-.148.716.081.126.117.305.411.31.603l.021.741-.01.681c-.003.186-.027.345-.146.457-.126.118-.301.056-.498.105l-.818.206-.526.081-1.031.218-.485.088-.731.222c-.243.074-.641-.013-.814.244l-.004,1.783.908.002,1.773-.015.548-.112.594.006c.279.003.698.179.699.526l.007,1.851c0,.131-.152.337-.236.456l-4.291.003.01,2.006h1.495c1.087-.16,2.153-.155,3.246.004Z"/>
      <path d="M32.805,52.389l.528.703c.2.266.48.471.527.849.021.167-.07.533-.207.635l-.518.388c-.621.464-1.243.814-1.977,1.063-.36.122-.523.064-.989.173-.616.145-1.021-.091-1.316-.081-.236.008-.405-.028-.602-.122l-.69-.332c-.243-.117-.545-.246-.735-.436l-1.33-1.323-.259-.46c-.198-.352-.398-.72-.496-1.116l-.178-.713c-.116-.466-.071-1.677.162-2.213l.236-.541c.402-.922,1.068-1.659,1.837-2.296.312-.258,1.571-.925,1.936-.925l1.889-.003c.131,0,.394.076.505.117l.616.229c.508.189.964.457,1.338.852l.711.749c.111.117.226.46.201.613-.131.821-.646.838-.859,1.044l-.778.756c-.062.06-.231.109-.299.143-.613.301-.906-.255-1.518-.512-.473-.199-.908-.258-1.384-.09l-.422.432-.076.439c-.224.262-.159.567.047.823.022.413.281.851.755.972.319.081.753.027,1.121.03l.351-.163.508-.331c.119-.078.297-.278.467-.131l.899.779Z"/>
      <path d="M22.411,56.088l-.698.114c-.73.12-1.444.086-2.177.037l-.518-.091-1.83-.032-.19-.109-1.716.002-.246.106h-1.277c-.157-.116-.477-.37-.478-.572l-.01-2.112.169-.722c.118-.505.083-1.094.001-1.626l-.097-.631c-.036-.236-.102-.524-.068-.769.014-.101.399-.394.67-.423.099-.011.243.172.337.195l.492.123.763.161c.157.033.349.107.51.09.499-.05.936.062,1.299.416-.001.404.052.857-.04,1.244-.044.185-.154.321-.154.539,0,.312.104.787.472.834l1.101.142.3.078,3.37-.005.335.309-.034,1.639-.043.487c-.013.148-.146.443-.244.572Z"/>
      <path d="M18.631,7.39c-.216.014-.429.175-.597.185-.466.028-.766.177-1.265.122l-.031-.371c.3-.16.468-.38.699-.603l.399-.386.375-.345c.209-.192.364-.424.562-.619l.708-.696.329-.349.631-.601.568-.553.463-.491.559-.541c.151-.146.301-.218.413-.399.182-.294.462-.504.746-.712.062-.176.194-.289.377-.353.158-.242.346-.487.554-.677l.399.155.221.329,6.749,6.75c.104.048.199.091.25.135.059.051.026.3-.049.313-.6.103-.844-.125-1.035-.103-.323.037-.506-.036-.78-.194l-.646-.015-.394-.091-.945-.04-.839-.19-1.831-.046c-.656-.017-1.299-.051-1.955,0-.648.05-1.282.033-1.945.03-.424.195-.864.251-1.343.218-.222-.015-.405.079-.622.093l-.727.047ZM26.641,5.785l1.184.01c.181.063.303.168.527.128l-.7-.673-.265-.241-1.046-1.026-1.851-1.855c-.078-.078-.184-.288-.326-.245l-2.635,2.647-1.413,1.395c.182.165.287-.12.376-.122l1.287-.02.393-.105h4.192c.05.025.214.105.276.106Z"/>
      <path d="M20.825,22.916l.002-8.697c.166-.263.062-.457.184-.825.169-.509.398-.93.764-1.324.168-.18.401-.319.616-.455l.478-.303c.264-.146.509-.236.829-.162.329-.199.703-.17,1.044-.003.276-.055.524-.007.73.155.259.046.447.201.669.338.424.26.768.563.987,1.04l.431.936v9.512s-6.556,0-6.556,0c-.068,0-.156-.11-.178-.212ZM23.872,13.58l.007-1.148c-.145-.051-.323.01-.451.111l-.403.2.847.838ZM24.556,13.639l.899-.875-.363-.203c-.162-.09-.377-.271-.561-.072.126.41-.056.577.068.808-.03.092-.054.183-.043.341ZM23.387,14.078l-.803-.867-.262.427c-.088.144-.117.278-.108.461l1.172-.022ZM26.326,14.09l-.112-.267-.308-.64-.336.33-.584.573,1.339.004ZM23.9,14.712h-1.696s0,7.138,0,7.138h1.696s0-7.138,0-7.138ZM24.63,14.713v7.137s1.684,0,1.684,0v-7.137s-1.684,0-1.684,0Z"/>
      <path d="M15.086,24.511l-.482.104-.406.169-.466.111-.491.076c-.137.021-.789.351-1.235.212l-.288-.967-.174-.656-.115-.558-.206-.696-.145-.431-.026-.412c-.219-.152-.161-.356-.218-.584l-.18-.711-.137-.507-.173-.535c-.078-.242-.113-.446-.144-.719-.016-.126-.149-.363-.178-.5l-.098-.47c-.095-.453-.039-.949-.013-1.43.007-.121.114-.369.164-.482l.194-.44c.142-.323.424-.584.664-.835.258-.27.548-.445.887-.575.294-.182.638-.2.981-.259.28-.048.519-.063.797-.007.301.06.648.09.909.211l.364.167c.057.026.161.096.225.145.622.475,1.115,1.017,1.311,1.787l.144.564.172.469c.08.218.09.429.151.65l.215.772.124.447.176.68.093.51.172.412.105.507.204.655.135.574.172.679.146.496c.033.113.087.41-.014.465l-.44.132-.691.197-.539.149-.627.177c-.145.041-.34.011-.5.108-.141.085-.33.108-.518.149ZM13.517,15.534l.399-.761c-.367-.064-.5-.062-.866-.058l.196.842.077.31.194-.333ZM12.637,15.988c-.007-.324-.027-.379-.082-.561l-.163-.53-.361.177c-.159.078-.334.276-.347.426.203.065.335.111.468.192l.485.296ZM14.132,16.109l.49-.143.442-.106c-.117-.254-.354-.534-.566-.702l-.227.407c-.188.337-.515.699-.323.62l.185-.076ZM12.307,16.551l-.352-.198-.583-.358c-.117.035-.227.299-.214.442l.036.399.343-.041c.156-.019.312-.097.451-.094.087.002.193.025.224-.017l.095-.133ZM16.373,22.768l.484-.106c-.007-.182-.051-.406-.11-.597,0-.228-.068-.423-.206-.592-.033-.409-.143-.787-.304-1.156l-.091-.512-.22-.792-.12-.444-.168-.52-.069-.501c-.264-.384-.134-.713-.353-1.049l-.56.15-.473.197c-.191-.097-.578-.002-.595.207.133.173.204.314.249.516l.12.542.178.576.107.546.229.726.102.549c.144.203.159.358.216.597l.139.584.167.697.201.624c.38.087.577-.133,1.078-.243ZM14.107,23.365l.525-.036c.051-.177-.018-.352-.142-.493-.071-.081-.043-.328-.074-.427l-.191-.612-.15-.512-.191-.704-.117-.447-.22-.752-.103-.552c-.095-.218-.174-.392-.215-.633l-.077-.453c-.035-.207-.076-.473-.277-.615-.037-.026-.166.018-.216.036l-.626.22-.466.08c-.078.013-.164.019-.202.047s-.012.162.009.209c.085.185.121.364.169.564l.177.734.115.485.213.646.115.548c.042.203.156.362.193.582l.096.578.223.644.116.579.221.552c.306-.014.807-.108,1.096-.268Z"/>
      <path d="M34.732,24.888c-.635-.095-.783-.264-1.235-.327-.556-.078-.804-.359-1.223-.287l-.606-.212-.464-.115-.533-.159-.661-.204c.022-.288.076-.505.145-.758l.168-.618.129-.55.218-.793.105-.386.214-.705.122-.577.163-.585.135-.488.213-.781.148-.575.185-.667.15-.469c.301-.944,1.005-1.553,1.879-2.028.801-.21,1.677-.263,2.495-.003l.361.197c.448.244.895.528,1.148.976l.238.423.212.46c.195.423.212,1.193.132,1.68l-.095.577-.195.388c-.007.218-.034.395-.09.583l-.199.675-.184.686-.141.469c-.005.293-.046.475-.205.716l-.114.586-.204.553c-.143.387-.025.791-.281,1.166-.057.083-.034.308-.063.399l-.346,1.115-.479-.055-.543-.136c-.246-.062-.428-.127-.702-.168ZM35.209,15.754l.112-.432.152-.585-.62-.032c-.071-.004-.215.114-.237.177l.385.679.075.199c.012.032.138.01.134-.006ZM36.315,15.729l.541-.23c-.191-.294-.391-.438-.742-.597l-.177.578-.081.507.46-.257ZM34.601,16.1l-.083-.104-.285-.404-.243-.45-.604.64.402.208c.41,0,.987.326.813.11ZM36.397,16.716l.425.081.475.101c.08-.269.035-.68-.196-.927-.181.21-.346.309-.566.374l-.278.179c-.037.024-.091.149-.047.158l.185.035ZM33.215,23.063l.207-.727.12-.506.199-.678.172-.623.124-.543c.059-.256.155-.433.213-.694l.117-.528c.056-.252.056-.383.19-.602l.119-.587c.044-.216.078-.336.266-.535-.171-.187-.48-.242-.747-.209-.214-.163-.414-.23-.692-.22-.048-.04-.249-.148-.28-.081l-.118.255c.045.253-.025.446-.164.632.002.272-.056.514-.184.757l-.122.529-.151.584-.171.607-.171.618-.121.504-.221.737-.111.487-.085.409.401.12.728.216.482.078ZM35.69,23.102c.051-.084.068-.312.088-.405l.1-.471.162-.411.144-.594c-.02-.213.044-.412.173-.564.018-.22.037-.42.102-.615l.212-.638.107-.495c.055-.257.08-.47.229-.685l.065-.406c.014-.085.028-.228-.008-.289-.07-.121-.663.004-1.278-.368-.043-.026-.184-.056-.203-.014l-.062.141c-.193.187-.144.384-.195.622l-.129.6c-.025.115-.191.324-.186.447.008.209-.012.328-.063.487l-.208.652-.133.586-.185.659-.142.47-.173.654c-.071.269-.108.475-.239.743-.025.099.248.145.344.171l.682.188c.186.051.485.114.624.048.014-.229.071-.343.174-.512Z"/>
      <path d="M31.802,30.984l-.603-.158c-.091-.024-.309-.025-.393-.078-.451-.282-.662-.071-.877-.268-.068-.062-.085-.288-.051-.376l.236-.62c.049-.128.068-.252.072-.42.003-.114.117-.304.137-.404l.138-.658c.134-.641.486-1.227,1.129-1.434.335-.108.675-.294,1.04-.082l.384.159.467.395c.339.385.427.887.355,1.345l-.087.552c-.271.283-.142.437-.265.887-.054.197-.125.338-.214.533-.106.232.019.67-.252.87-.158.117-.446-.053-.592-.089l-.623-.154ZM32.597,30.489c-.017-.345.04-.511.218-.705l.021-.419.141-.535c.102-.388.336-.839-.056-1.293-.199-.231-.387-.348-.721-.328-.22.014-.575.009-.717.236-.138.22-.266.539-.324.776l-.124.507-.192.625-.134.574.662.197.473.141.752.224Z"/>
      <path d="M16.973,30.896c-.236.031-.414.082-.597.191-.257-.013-.52.061-.74.216-.081.024-.342-.056-.35-.149l-.038-.476c-.133-.197-.179-.369-.227-.59l-.122-.565c-.027-.126-.196-.313-.146-.507.024-.093-.194-.516-.086-1.464.025-.221.276-.621.477-.714l.943-.434c.198-.091.533.077.722.159l.409.176c.118.051.219.171.269.297.211.157.344.359.311.635.128.192.205.39.236.615l.108.508.158.563.222.792c.056.2-.061.426-.298.421-.251-.005-.44.143-.681.197l-.572.13ZM17.649,29.921c.091-.057-.013-.321-.041-.427l-.154-.587-.139-.49-.176-.618c-.05-.175-.275-.514-.468-.548-.291-.051-.598-.028-.871-.021l-.227.236c-.231.073-.354.546-.244.918l.219.741.114.565c.06.296.065.625.323.785l.549-.209c.401-.153.676-.092,1.116-.344Z"/>
    </g>
  </g>
</svg>