<?xml version="1.0" encoding="UTF-8"?>
<svg id="b" xmlns="http://www.w3.org/2000/svg" version="1.1" viewBox="0 0 24.2 24.1">
  <!-- Generator: Adobe Illustrator 30.4.0, SVG Export Plug-In . SVG Version: 2.1.3 Build 159)  -->
  <defs>
    <style>
      .st0 {
        fill: #ff69b4;
      }
    </style>
  </defs>
  <g id="c">
    <path class="st0" d="M11.8,0h.6c0,0,.2,0,.3,0,2.8.1,5.6,1.3,7.6,3.2l.6.6c1.8,2,3,4.5,3.2,7.1v.4c0,0,0,.1,0,.2v.9s0,0,0,0v.6c-.2,2.7-1.4,5.3-3.2,7.3-1.9,2.1-4.5,3.4-7.3,3.7v-8.3s3.3,0,3.3,0l.7-3.7h-3.9v-1.5c0-.3,0-.7.1-1,.2-.7.6-1.1,1.3-1.3.3,0,.7-.1,1-.2.6,0,1.1,0,1.7,0v-3.4c-.6-.1-1.1-.2-1.6-.2-.9,0-1.8,0-2.7,0-2.4.4-3.6,1.8-4,4.1,0,.5-.1,1.1-.1,1.6v1.7s-2.5,0-2.5,0v3.7h2.5s0,8,0,8c-2.2-.6-4.2-1.7-5.8-3.4C1.3,18.3.1,15.6,0,12.7v-.9c0-3.2,1.4-6.3,3.8-8.5C5.9,1.3,8.6.1,11.5,0c.1,0,.2,0,.3,0Z"/>
  </g>
</svg>