<?xml version="1.0" encoding="UTF-8"?>
<svg id="b" xmlns="http://www.w3.org/2000/svg" version="1.1" viewBox="0 0 24 24">
  <!-- Generator: Adobe Illustrator 30.4.0, SVG Export Plug-In . SVG Version: 2.1.3 Build 159)  -->
  <defs>
    <style>
      .st0 {
        fill: #ff69b4;
      }
    </style>
  </defs>
  <g id="c">
    <g>
      <path class="st0" d="M14.8,24H6.6c-1.1-.1-2.5-.5-3.4-1.1-.8-.5-1.5-1.2-2-2-.6-1-.9-2.3-1-3.4,0-.9,0-1.7,0-2.6v-5.6c0-.9,0-1.7,0-2.6,0-1.2.4-2.4,1-3.4.5-.8,1.2-1.5,2-2C4.1.5,5.4.2,6.6,0,7.5,0,8.5,0,9.4,0h5.2C15.6,0,16.5,0,17.5,0c1.2,0,2.4.4,3.4,1,.8.5,1.5,1.2,2,2,.6,1,.9,2.3,1,3.4v2.6c0,0,0,5.7,0,5.7v2.6c-.1,1.1-.5,2.5-1.1,3.4-.5.8-1.2,1.5-2,2-1,.6-2.3.9-3.4,1h-2.7ZM17.4,21.8c.6,0,1.2-.2,1.7-.4.5-.2,1-.5,1.4-.9.4-.4.8-.9,1-1.5.2-.6.3-1.1.3-1.7v-2.9c0,0,0-4.7,0-4.7,0-1,0-2,0-2.9,0-.6-.2-1.1-.3-1.7-.2-.6-.5-1.1-.9-1.5-.4-.4-.9-.7-1.4-.9-.6-.2-1.1-.3-1.8-.4-.9,0-1.8,0-2.7,0h-5.2c-.9,0-1.8,0-2.7,0-.6,0-1.2.2-1.8.4-.5.2-1,.5-1.4.9-.4.4-.7.9-1,1.5-.2.6-.3,1.1-.3,1.7,0,1,0,1.9,0,2.9v4.7c0,1,0,1.9,0,2.9,0,.6.2,1.2.3,1.7.2.6.5,1.1,1,1.5.4.4.8.7,1.4.9.6.2,1.1.3,1.8.4.9,0,1.8,0,2.7,0h8c0,0,0,0,0,0Z"/>
      <path class="st0" d="M18.2,12c0,3.4-2.8,6.2-6.2,6.2s-6.2-2.8-6.2-6.2,2.8-6.2,6.2-6.2,6.2,2.8,6.2,6.2ZM16,12c0-2.2-1.8-4-4-4s-4,1.8-4,4,1.8,4,4,4,4-1.8,4-4Z"/>
      <circle class="st0" cx="18.4" cy="5.6" r="1.4"/>
    </g>
  </g>
</svg>