<?xml version="1.0" encoding="UTF-8"?>
<svg id="b" data-name="Layer 2" xmlns="http://www.w3.org/2000/svg" width="129.164" height="24.474" viewBox="0 0 129.164 24.474">
  <g id="c" data-name="Layer 1">
    <g>
      <path d="M129.164.501v2.663c-.135.058-.533.216-.741.214l-3.299-.023c-.259-.002-.487-.013-.75.058l.006,6.539,3.194.018v3.087s-3.195.038-3.195.038l-.005,7.731,4.789.024v3.229l-.723-.105-7.414-.018V.296s7.755-.008,7.755-.008l.382.214Z"/>
      <path d="M117.263,23.995c-.357.007-.71.125-.855-.338l-2.414-7.712-.957-3.48-.21-.965c-.167-.769-.196-1.446-.676-2.124l.174,2.277.151,1.734.133,2.739.046,7.459c.001.222-.262.381-.448.385l-2.897.056V.312s2.843-.012,2.843-.012l1.656,5.29,2.394,8.229.23.956c.123.512.071.983.504,1.434.062-.77.01-1.491-.067-2.292l-.24-2.508-.104-2.516-.034-8.593,3.349-.009v23.656s-2.579.048-2.579.048Z"/>
      <path d="M70.685,23.863c0,.33-.501.122-.662.12l-2.571-.026-.908-2.677-1.814-5.941-.809-3.01-.676-2.906c-.331.561-.21,1.104-.084,1.721.232,1.143.227,2.297.239,3.49l.1.606v8.709s-3.342.012-3.342.012l-.007-23.624,2.889-.054,2.123,6.699,1.413,4.93.758,2.826.471,1.748c.257-.218.259-.442.215-.736l-.266-1.806-.253-3.653-.11-2.801-.046-7.192,3.343-.011-.003,23.574Z"/>
      <path d="M55.624,24.361c-2.068.273-2.383.051-3.728-.644-1.354-.7-2.234-2.038-2.235-3.635l-.017-15.846c-.002-1.885,1.269-3.615,3.092-4.086.93-.24,2.063-.124,3.127-.05,1.351.093,3.196,2.141,3.193,3.896l-.03,16.444c-.003,1.666-1.409,2.95-2.704,3.581l-.698.34ZM54.977,21.128c.438-.237.754-.787.754-1.255l-.024-15.686c-.001-.853-.963-1.343-1.521-1.227-.765.16-1.181.735-1.181,1.577l-.002,15.167c0,.577.253,1.218.754,1.439.267.118.944.134,1.22-.016Z"/>
      <path d="M32.869,12.744c-.517,1.291-1.235,2.518-1.441,3.823l-.13,7.37-2.693.055-.388.025c-.086.005-.159-.223-.22-.362l.004-23.368,3.328.012-.026,7.036-.096,1.956c.592-.141.39-.576.487-.865l.967-2.881,1.563-4.397c.165-.465.301-.913.809-.904l2.921.051-3.023,8.015.535,2.091,2.701,11.477.41,1.537c.028.106.022.408-.038.499-.072.11-.309.073-.503.07l-2.826-.04-.791-3.543-.368-1.638-.269-1.191-.913-4.829Z"/>
      <path d="M13.092,20.762l-.179-1.465-.052-.466c-.013-.121-.31-.241-.445-.241l-2.38-.008c-.168.29-.227.702-.265,1.063l-.262,2.473c-.068.644-.14,1.324-.318,1.935-1.106-.111-1.863-.109-2.957-.003-.031-.556.009-1.115.083-1.662l.774-5.795.389-2.813.241-1.718,1.408-10.287.151-1.478,4.319-.008.336,2.354.222,1.687.303,2.294.745,5.973.397,2.941.256,1.931.351,2.631.365,2.731.155,1.125-3.236.014-.403-3.207ZM12.446,15.569l-.092-1.553-.091-.877-.356-3.55-.267-3.092-.228-2.027c-.357.563-.25,1.011-.296,1.556l-.23,2.751-.583,6.211-.081.373c-.017.081.247.227.347.226l1.877-.019Z"/>
      <path d="M101.818,18.581c-.483.001-.648.441-.673.817l-.106,1.582-.215,1.781c-.048.396-.006.898-.248,1.182l-2.152.052c-.302.007-.853.034-.93-.223l.258-1.592.308-2.301,1.233-9.024.394-2.818.244-1.829.794-5.91,4.272-.013.187,1.281.202,1.589.276,1.938.274,2.131,1.135,8.838.378,2.862.361,2.622.247,1.778c.019.138.03.603-.109.634l-3.091.01-.487-4.548c-.02-.183-.069-.478-.138-.603-.08-.145-.459-.24-.638-.24l-1.775.004ZM103.916,15.575l-.275-2.62-.366-3.672-.155-1.581-.224-3.096c-.609.607-.347,1.322-.404,2.017l-.164,2.009-.255,2.806-.25,2.487-.175,1.635,2.268.015Z"/>
      <path d="M23.473,19.493l.056-2.228-.077-1.671,3.227-.012.134.721c.175.938.108,1.85.034,2.788-.1,1.261-.319,2.467-1.04,3.527-.402.592-.956.937-1.573,1.311l-.818.496-2.605.004-1.247-.686c-1.166-.642-2.086-2.426-2.088-3.493l-.022-16.371.45-1.46c.53-1.099,1.336-1.855,2.46-2.371l3.463.002c2.128.993,2.815,2.66,3,4.901.084,1.024.11,1.985-.123,2.989l-3.27-.013c.123-1.126.12-2.044.038-3.097-.05-.647-.092-1.232-.673-1.671-.342-.258-.89-.307-1.297-.11-.398.192-.672.668-.695,1.165l-.048,1.071.028,1.012.017,13.706c0,.489.27,1.04.746,1.173.264.074.876.085,1.125-.015.623-.252.782-1.015.798-1.669Z"/>
      <path d="M42.704,24.375c-.54-.007-1.302-.53-1.738-.809-.776-.496-1.319-1.152-1.628-1.991-.228-.617-.451-1.365-.452-2.023l-.003-2.358,2.676-.232.42-.014c.117-.004.23.303.232.423l.029,2.401c.078.272.33.788.494,1.047.281.443,1.025.489,1.531.364,1.552-.385,1.508-3.643-.216-5.995-1.305-1.781-2.49-3.56-3.626-5.454-1.005-1.675-1.589-3.516-1.383-5.452.202-1.888,1.244-3.574,3.178-4.137.885-.219,2.11-.152,3.114-.042,1.312.144,2.225,1.407,2.642,2.524l.28,1.09c.219.851.245,1.72.152,2.586l-3.201.343c.016-1.537.009-3.424-1.192-3.69-.461-.102-1.016.113-1.302.615-2.194,3.847,4.699,8.25,5.819,14.165.472,2.496.06,5.109-2.285,6.19l-1.041.48-2.499-.032Z"/>
      <path d="M75.489,24.406l-1.272-.642c-2.259-1.141-2.603-3.895-2.417-6.371.015-.201.581-.261.793-.276l1.784-.127.502-.03c.138-.008.214.39.221.529l.113,2.164c.036.697.469,1.46,1.174,1.557.572.078,1.198.005,1.486-.446.542-.849.519-1.834.353-2.767-.222-1.246-.833-2.161-1.519-3.176l-2.793-4.136c-.869-1.286-1.582-2.675-1.857-4.217-.381-2.144.123-4.753,1.977-5.804l1.081-.613,3.353-.017.424.286c.918.363,1.5,1.055,1.87,1.975.566,1.222.596,2.553.548,4.002l-3.189.335c-.061-1.754.038-3.72-1.52-3.69-1.522.03-1.833,3.021-.577,4.921l3.138,4.745c1.737,2.627,2.811,5.131,2.316,8.293-.186,1.188-.945,2.256-1.949,2.8l-1.312.711-2.731-.006Z"/>
      <path d="M96.392,21.369v2.129c0,.14-.141.446-.265.508s-.42-.029-.596-.03l-7.106-.016c-.13-.248-.147-.489-.053-.762V1.063s-.105-.447-.105-.447c-.027-.115.255-.332.369-.331l3.092.021-.003,19.805c0,.267-.061.497.039.742l4.203.003c.194,0,.424.366.424.512Z"/>
      <path d="M.711,23.993l-.711.077.002-3.318c.964-.061,1.532-.133,1.915-1.008l.008-19.455,3.336.015-.012,20.048c0,.531-.272,1.171-.399,1.63-.241.871-.891,1.388-1.708,1.669-.777.266-1.594.253-2.431.343Z"/>
    </g>
  </g>
</svg>