<?xml version="1.0" encoding="UTF-8"?>
<svg id="b" data-name="Layer 2" xmlns="http://www.w3.org/2000/svg" width="753.755" height="514.538" viewBox="0 0 753.755 514.538">
  <g id="c" data-name="Layer 1">
    <g>
      <path d="M753.207,474.838c-.109,18.759-18.775,39.7-39.656,39.7H40.2c-20.938-.001-39.446-20.888-39.578-38.984l-.275-37.913,216.67-174.684,159.865,82.094,159.789-82.098,216.752,174.691-.216,37.193Z" fill="#ff69b4"/>
      <path d="M753.412,78.745l-376.516,192.783L.57,78.854c-.534-13.709-.871-25.251.035-39.85C1.731,20.843,19.206,0,40.208,0h673.357c20.942.001,39.47,20.886,39.588,38.984l.259,39.761Z" fill="#ff69b4"/>
      <polygon points="173.518 240.945 .161 381.031 0 151.85 173.518 240.945" fill="#ff69b4"/>
      <polygon points="753.642 380.925 580.006 240.969 753.755 151.892 753.642 380.925" fill="#ff69b4"/>
    </g>
  </g>
</svg>