<?xml version="1.0" encoding="UTF-8"?>
<svg id="b" data-name="Layer 2" xmlns="http://www.w3.org/2000/svg" width="157.803" height="33.961" viewBox="0 0 157.803 33.961">
  <g id="c" data-name="Layer 1">
    <g>
      <g>
        <path d="M60.8,14.834c.13-.789.264-1.578.388-2.369.386-2.453.769-4.907,1.156-7.357.069-.444.161-.888.214-1.334.032-.271.165-.359.41-.346.707.034,1.412.074,2.119.103.268.01.283.153.246.368-.186,1.032-.357,2.064-.543,3.096-.82,4.618-1.642,9.236-2.464,13.851-.095.529-.202,1.052-.295,1.581-.056.32-.235.46-.559.443-.744-.036-1.487-.052-2.229-.102-.307-.02-.486-.175-.504-.541-.168-3.06-.353-6.117-.535-9.177-.015-.239-.036-.477-.056-.719-.04-.007-.079-.015-.122-.022-.057.173-.134.341-.163.517-.506,3.104-1.01,6.205-1.502,9.311-.055.345-.184.481-.548.454-.778-.055-1.558-.07-2.339-.099-.324-.014-.49-.212-.515-.509-.122-1.497-.231-2.994-.345-4.491-.141-1.873-.285-3.749-.426-5.622-.128-1.691-.256-3.384-.381-5.075-.085-1.157-.167-2.312-.247-3.469-.032-.458-.019-.472.455-.454.707.026,1.412.063,2.119.1.118.005.235.044.379.074.229,4.066.461,8.118.69,12.17.025.002.051.004.079.006.075-.461.155-.922.227-1.382.428-2.778.853-5.559,1.281-8.337.098-.639.202-1.275.285-1.913.039-.311.142-.474.503-.441.654.058,1.316.074,1.973.101.318.014.396.195.41.481.106,2.147.224,4.291.342,6.438.078,1.402.155,2.804.244,4.203.01.166.082.33.123.492.045-.01.087-.022.131-.032l-.003.003Z" fill="#fff"/>
        <path d="M68.852,21.562c-.034.201-.099.405-.096.605.073,2.992.158,5.982.239,8.974.01.36-.17.545-.539.555l-1.502.041c-.467.013-.602-.11-.618-.591-.046-1.465-.086-2.93-.126-4.395-.127-4.637-.253-9.277-.377-13.915-.015-.546.026-.589.558-.606.574-.016,1.148-.023,1.721-.05.256-.013.387.049.462.331.852,3.157,1.72,6.31,2.586,9.464.022.078.055.15.164.218l-.011-.411c-.083-3.029-.165-6.055-.248-9.083-.015-.531.043-.598.563-.612l1.648-.045c.329-.009.479.114.488.471.159,6.117.328,12.23.495,18.347.014.526-.134.676-.656.696-.416.014-.829.031-1.246.031-.318,0-.524-.115-.624-.475-.846-3.056-1.717-6.105-2.58-9.157-.037-.134-.094-.265-.143-.396l-.16.004h.003Z" fill="#fff"/>
        <path d="M32.039,23.842c.025.084.023.126.044.151.574.716.541,1.482.186,2.269-.472,1.046-.959,2.083-1.44,3.127-.489,1.063-.989,2.124-1.461,3.195-.151.342-.239.716-.322,1.081-.068.3-.213.358-.469.241-.653-.297-1.302-.598-1.955-.895-.385-.175-.352-.505-.27-.812.1-.363.248-.713.405-1.055.775-1.696,1.56-3.383,2.341-5.076.011-.023.021-.043.032-.066.507-1.103.195-1.398-.852-1.826-.256-.106-.378.081-.468.283-.367.798-.733,1.596-1.103,2.394-.72,1.559-1.443,3.121-2.166,4.68-.189.408-.208.411-.633.217-.55-.255-1.103-.507-1.653-.765-.536-.253-.576-.375-.321-.928.558-1.206,1.116-2.411,1.671-3.617,1.985-4.301,3.972-8.602,5.957-12.9.25-.539.275-.548.817-.295,1.368.638,2.742,1.265,4.102,1.92.684.33,1.262.784,1.489,1.561.161.55.12,1.106-.1,1.61-.606,1.398-1.23,2.792-1.904,4.158-.376.764-.998,1.288-1.936,1.353l.008-.003ZM30.24,21.961c.563-.004.831-.273,1.002-.621.49-1.007.958-2.024,1.428-3.039.056-.12.061-.258.091-.388.078-.34-.056-.592-.334-.776-.152-.1-.312-.188-.474-.266-.385-.181-.583-.119-.761.268-.606,1.303-1.198,2.611-1.801,3.913-.13.282-.07.514.19.653.243.128.515.2.663.255h-.003Z" fill="#fff"/>
        <path d="M46.902,20.69c-1.031-.028-1.884-.469-2.652-1.056-1.072-.821-2.106-1.693-3.154-2.545-1.22-.991-2.449-1.973-3.65-2.985-1.08-.908-2.193-1.792-3.186-2.792-1.395-1.406-1.453-2.927-.301-4.545.453-.637.954-1.228,1.632-1.651.988-.618,2.019-.66,3.032-.167.705.344,1.389.77,1.999,1.262,2.763,2.229,5.501,4.488,8.233,6.755.455.379.881.812,1.245,1.277,1.044,1.331,1.057,2.729.075,4.104-.599.838-1.238,1.646-2.229,2.053-.331.136-.695.196-1.047.293l.003-.003ZM37.369,7.76c-.627.009-1.081.491-1.045.988.037.542.42.861.797,1.171,2.64,2.168,5.28,4.333,7.928,6.493.423.346.857.686,1.329.96.463.269.849.165,1.146-.192.338-.406.354-.829.03-1.262-.137-.182-.294-.361-.47-.505-1.362-1.128-2.729-2.244-4.094-3.367-1.451-1.19-2.899-2.383-4.355-3.565-.412-.335-.813-.701-1.261-.72l-.006-.003Z" fill="#fff"/>
        <path d="M32.482,5.644c-.101.124-.176.244-.278.34-1.15,1.053-2.307,2.103-3.46,3.154-1.832,1.665-3.663,3.331-5.498,4.993-1.653,1.5-3.309,2.992-4.96,4.495-.17.157-.291.177-.45-.005-.496-.555-.993-1.107-1.505-1.645-.301-.318-.061-.48.148-.671,1.634-1.48,3.268-2.96,4.896-4.445.445-.406.443-.474.062-.919-.189-.223-.386-.44-.584-.657-.25-.275-.486-.293-.758-.047-1.409,1.277-2.815,2.559-4.224,3.839-.324.296-.639.603-.984.871-.08.061-.319.051-.386-.02-.519-.549-1.004-1.126-1.523-1.675-.206-.217-.181-.35.028-.535,1.071-.961,2.134-1.93,3.197-2.896,1.769-1.605,3.534-3.209,5.303-4.814,1.623-1.474,3.246-2.948,4.872-4.419.217-.194.425-.406.672-.556.1-.062.348-.029.432.056.512.524.992,1.073,1.488,1.614.229.25.062.426-.113.586-.648.595-1.299,1.181-1.95,1.773-1.219,1.106-2.439,2.211-3.652,3.322-.283.258-.289.453-.033.752.212.25.441.489.653.739.221.261.453.3.714.065.58-.52,1.162-1.036,1.736-1.561,1.28-1.163,2.556-2.332,3.839-3.493.368-.334.498-.32.843.056.438.478.87.956,1.3,1.436.061.069.106.155.176.263v.006Z" fill="#fff"/>
        <path d="M2.334,24.653c-.123-.059-.202-.09-.274-.13-.563-.311-1.126-.625-1.686-.939-.432-.242-.465-.339-.229-.765.936-1.697,1.872-3.392,2.81-5.086,1.598-2.889,3.194-5.78,4.801-8.664.164-.294.126-.448-.182-.597-.471-.226-.917-.498-1.377-.745-.3-.161-.351-.376-.187-.665.322-.574.647-1.146.958-1.726.131-.248.283-.253.503-.129,2.043,1.135,4.089,2.264,6.132,3.398.431.239.432.244.196.679-.303.557-.623,1.103-.917,1.663-.147.277-.304.323-.578.156-.466-.283-.96-.523-1.429-.802-.269-.162-.42-.124-.575.159-.866,1.583-1.746,3.157-2.62,4.735-1.69,3.049-3.377,6.101-5.069,9.147-.064.117-.18.208-.27.311h-.006Z" fill="#fff"/>
      </g>
      <g>
        <path d="M156.24,20.361c.561.324.948.757,1.023,1.372.056.446.039.907.011,1.361-.118,1.889-.261,3.779-.374,5.669-.028.46.013.929.064,1.389.026.258-.065.36-.296.347-.702-.039-1.4-.094-2.101-.141-.271-.018-.405-.202-.427-.431-.037-.38-.051-.77-.025-1.151.105-1.728.231-3.452.339-5.18.019-.29.02-.584.01-.874-.013-.408-.176-.6-.577-.729-.066-.021-.134-.047-.201-.054-.976-.1-.966-.075-1.023.806-.145,2.322-.308,4.643-.463,6.964-.032.478-.041.486-.527.453-.607-.041-1.214-.089-1.819-.122-.309-.015-.439-.175-.435-.469,0-.094.01-.186.016-.28.387-5.787.774-11.571,1.162-17.358.025-.374.224-.549.596-.524,1.354.091,2.709.165,4.059.28.424.036.851.143,1.252.286.888.318,1.316,1.06,1.301,1.928-.024,1.574-.162,3.146-.299,4.716-.067.757-.454,1.224-1.266,1.737l.002.006ZM153.076,16.665c-.046.688-.108,1.372-.124,2.059-.003.159.108.407.241.472.668.344,1.472-.026,1.551-.754.129-1.157.185-2.322.239-3.487.019-.412-.211-.673-.583-.77-.18-.047-.365-.076-.55-.093-.427-.037-.604.116-.636.546-.05.674-.09,1.349-.136,2.026l-.003.003Z" fill="#fff"/>
        <path d="M97.671,16.114c.126-1.889.223-3.779.395-5.665.057-.614.247-1.233.488-1.805.414-.99,1.214-1.562,2.275-1.694,1.015-.124,2.029-.075,3.002.298.989.379,1.587,1.126,1.746,2.138.129.821.155,1.67.108,2.501-.191,3.301-.42,6.6-.662,9.897-.049.647-.163,1.301-.35,1.922-.44,1.455-1.455,2.223-2.976,2.246-.681.011-1.384-.049-2.044-.218-1.33-.335-2.153-1.375-2.284-2.806-.06-.671-.053-1.35-.016-2.025.085-1.597.206-3.195.313-4.793h.011s-.006.003-.006.003ZM102.498,16.486h.016c.112-1.678.23-3.357.335-5.039.022-.336.029-.678-.011-1.01-.067-.536-.36-.79-.87-.825-.529-.035-.826.161-.985.69-.066.222-.112.457-.127.685-.244,3.57-.486,7.138-.714,10.709-.019.285.023.584.093.862.109.428.428.625.931.64.399.01.71-.203.844-.602.058-.174.097-.361.112-.546.129-1.853.251-3.707.375-5.564h0Z" fill="#fff"/>
        <path d="M140.754,20.018l-.576,8.608c-.047.696-.127.766-.836.719l-1.435-.096c-.43-.029-.548-.161-.521-.599.063-1.027.137-2.053.206-3.079l.265-3.955c.038-.567.005-.601-.543-.638l-.946-.063c-.422-.028-.456.002-.485.434-.155,2.31-.309,4.618-.464,6.929-.047.709-.145.794-.854.747l-1.435-.096c-.414-.028-.537-.155-.518-.572.028-.584.073-1.166.112-1.749.351-5.249.702-10.496,1.056-15.746.039-.578.07-.605.656-.566.572.038,1.142.071,1.714.117.397.032.454.111.428.506-.144,2.157-.289,4.315-.433,6.472-.035.521-.017.536.496.57.349.023.702.033,1.05.073.27.032.394-.079.414-.339.01-.15.034-.303.044-.453l.412-6.158c.03-.451.088-.507.531-.48.608.035,1.215.076,1.819.122.395.032.457.109.43.506l-.588,8.782v.003Z" fill="#fff"/>
        <path d="M112.338,24.782c-.201.264-.342.474-.506.662-.682.788-1.491,1.236-2.585,1.052-1.065-.177-1.677-.827-2.025-1.792-.28-.777-.248-1.582-.194-2.388.241-3.603.469-7.206.739-10.807.053-.712.204-1.441.457-2.104.455-1.195,1.415-1.821,2.68-1.853.752-.02,1.527.051,2.257.224,1.209.283,1.951,1.253,1.985,2.562.028,1.071-.057,2.144-.089,3.219-.007.221-.101.304-.332.285-.698-.057-1.399-.104-2.098-.14-.256-.012-.307-.126-.295-.357.041-.769.092-1.537.087-2.307,0-.47-.284-.718-.737-.767-.509-.056-.779.104-.927.588-.065.209-.102.433-.116.651-.243,3.557-.481,7.114-.714,10.668-.019.277-.016.56.031.833.087.516.377.735.926.758.423.017.809-.267.934-.696.042-.146.084-.294.095-.444.097-1.375.192-2.75.276-4.129.024-.357-.178-.568-.55-.577-.819-.022-.69-.095-.649-.783.03-.524.065-1.051.105-1.574.033-.408.15-.505.558-.478,1.002.067,2.006.142,3.009.196.28.016.385.096.365.397-.243,3.511-.478,7.019-.705,10.531-.02.306-.141.414-.441.373-.265-.037-.537-.044-.803-.056-.242-.013-.383-.117-.412-.378-.032-.288-.096-.576-.158-.858-.033-.151-.099-.295-.171-.508l.003-.003Z" fill="#fff"/>
        <path d="M123.622,8.995c.007.135.022.239.015.341-.039.629-.09,1.26-.121,1.889-.016.315-.12.456-.473.422-.92-.086-1.843-.123-2.764-.198-.29-.025-.421.037-.44.359-.075,1.366-.169,2.73-.274,4.094-.026.344.107.458.427.471.654.03,1.305.095,1.959.123.296.012.419.112.393.423-.066.789-.111,1.579-.167,2.415l-2.165-.145c-.575-.038-.664.042-.703.625l-.286,4.269c-.029.441.026.504.472.533l2.764.185c.414.028.482.1.459.519-.031.584-.07,1.166-.117,1.749-.035.443-.18.557-.637.527l-5.424-.363c-.502-.034-.553-.088-.518-.601.138-2.098.276-4.199.416-6.298.251-3.756.505-7.511.759-11.264.022-.335.198-.492.525-.472l5.459.365.435.029.005.003Z" fill="#fff"/>
        <path d="M147.935,21.907l-2.289-.153c-.422-.028-.53.062-.558.475-.105,1.493-.2,2.987-.308,4.478-.022.325.08.464.419.479.933.046,1.868.117,2.8.182.422.028.487.103.462.519-.036.583-.075,1.166-.117,1.749-.031.467-.157.575-.614.547l-5.497-.368c-.422-.028-.467-.077-.44-.488.397-5.937.795-11.874,1.192-17.812.014-.21.007-.383.318-.359,1.971.143,3.943.269,5.915.404.046.003.091.017.189.037l-.088,1.314c-.022.328-.054.652-.066.981-.008.277-.135.358-.4.338-.945-.074-1.892-.121-2.834-.198-.276-.024-.396.036-.411.339-.078,1.366-.164,2.731-.274,4.094-.03.365.108.477.439.494.654.033,1.305.093,1.962.123.301.015.404.132.375.438-.068.778-.11,1.558-.165,2.388h-.011Z" fill="#fff"/>
        <path d="M93.401,16.692c-.165,2.461-.329,4.922-.494,7.383-.041.607-.129.682-.726.642l-1.47-.098c-.513-.034-.621-.158-.591-.685.056-.922.118-1.843.18-2.765.27-4.035.54-8.07.824-12.105.024-.357-.062-.479-.418-.481-.467-.002-.933-.052-1.4-.088-.4-.029-.528-.176-.503-.587.033-.537.072-1.072.108-1.609.029-.43.098-.493.544-.466.594.034,1.19.08,1.784.119l4.653.311c.604.04.612.052.57.672-.033.489-.06.981-.098,1.47-.035.443-.164.55-.602.524-.467-.031-.936-.044-1.399-.099-.337-.041-.448.075-.467.409-.143,2.298-.302,4.594-.453,6.894l-.037.559h-.003Z" fill="#fff"/>
        <path d="M127.572,11.661l-1.719-.115c-.54-.036-.655-.168-.62-.692.036-.537.08-1.071.105-1.609.013-.274.116-.408.406-.388,2.275.155,4.548.304,6.824.454.239.016.327.114.308.355-.05.628-.09,1.26-.129,1.888-.022.322-.192.451-.509.425-.478-.04-.956-.069-1.434-.099q-.47-.031-.501.431c-.134,2.007-.269,4.014-.403,6.018-.196,2.928-.392,5.854-.588,8.782-.042.631-.117.697-.748.652-.467-.031-.932-.062-1.399-.099-.505-.036-.648-.203-.613-.718.33-4.932.66-9.868.99-14.8l.033-.486-.003.003Z" fill="#fff"/>
      </g>
    </g>
  </g>
</svg>