<?xml version="1.0" encoding="UTF-8"?>
<svg id="b" data-name="Layer 2" xmlns="http://www.w3.org/2000/svg" width="141.146" height="35.621" viewBox="0 0 141.146 35.621">
  <g id="c" data-name="Layer 1">
    <g>
      <path d="M23.236,14.995l-2.692.011-.047-1.458c-1.148,1.327-2.702,1.848-4.448,1.527-3.458-.634-4.874-5.102-3.253-8.288.721-1.416,2.088-2.329,3.489-2.515,1.658-.221,3.101.286,4.211,1.566l.05-1.423,2.687.003.003,10.577ZM17.383,12.784c.901.129,1.803-.267,2.353-.879.723-.804.888-1.852.725-2.894-.235-1.497-1.518-2.52-2.966-2.418-1.471.103-2.514,1.302-2.599,2.831-.087,1.577.78,3.116,2.488,3.36Z"/>
      <path d="M71.265,14.989l-2.697.021-.029-1.439c-1.107,1.195-2.504,1.772-4.152,1.556-1.397-.183-2.775-1.066-3.507-2.482-.89-1.721-.941-3.792-.18-5.563.654-1.52,1.964-2.487,3.406-2.773,1.715-.34,3.256.227,4.433,1.496l.029-1.39,2.697-.003.002,10.577ZM67.984,11.624c.793-1.127.762-2.734.018-3.84-.56-.832-1.449-1.222-2.366-1.194-.856.026-1.691.449-2.198,1.251-.752,1.189-.677,2.79.177,3.897.57.738,1.379,1.11,2.245,1.067.796-.039,1.569-.395,2.123-1.183Z"/>
      <path d="M100.634,35.38l-2.695.046-.068-1.451c-1.088,1.256-2.512,1.764-4.149,1.543-1.408-.19-2.749-1.084-3.476-2.512-.858-1.686-.917-3.723-.192-5.472.724-1.746,2.29-2.824,4.157-2.916,1.46-.072,2.691.466,3.667,1.61l.059-1.461,2.691.01.007,10.603ZM93.124,32.309c.843.951,2.14,1.093,3.187.628,1.093-.485,1.588-1.611,1.617-2.836.039-1.638-1.005-2.983-2.613-3.106-1.494-.114-2.808.989-2.972,2.579-.1.979.081,1.947.779,2.735Z"/>
      <path d="M137.937,11.658l2.909-.004c-.673,2.267-2.72,3.536-5.008,3.524-3.037-.015-5.261-2.207-5.292-5.244-.017-1.681.403-3.333,1.722-4.466,1.267-1.088,2.949-1.411,4.599-1.171,2.423.352,4.079,2.297,4.259,4.705.039.52.038,1.028-.143,1.483l-7.701.005c.085,1.335.861,2.144,1.936,2.382s2.198-.139,2.719-1.215ZM138.341,8.686c-.089-1.4-1.041-2.065-2.153-2.22-1.446-.217-2.718.692-2.891,2.244l5.044-.023Z"/>
      <path d="M100.898,11.659l2.914-.003c-.692,2.313-2.804,3.578-5.15,3.521-2.787-.068-4.938-2.028-5.138-4.831-.112-1.561.157-3.128,1.19-4.352,1.205-1.427,3.061-1.937,4.901-1.726,3.12.357,4.831,3.029,4.407,6.215l-7.77.011c.067,1.318.866,2.145,1.922,2.381,1.086.243,2.215-.147,2.724-1.215ZM101.294,8.704c-.023-1.34-1.049-2.146-2.249-2.258-1.425-.134-2.632.742-2.773,2.256l5.023.003Z"/>
      <path d="M17.087,30.095c0,3.052-2.474,5.526-5.526,5.526s-5.526-2.474-5.526-5.526,2.474-5.526,5.526-5.526,5.526,2.474,5.526,5.526ZM14.203,29.264c-.185-1.165-1.036-2.009-2.058-2.229-1.123-.241-2.312.162-2.877,1.218-.611,1.143-.608,2.656.043,3.781.568.982,1.744,1.353,2.787,1.114,1.764-.404,2.398-2.035,2.105-3.884Z"/>
      <path d="M47.796,9.698c0,3.052-2.474,5.527-5.527,5.527s-5.527-2.474-5.527-5.527,2.474-5.527,5.527-5.527,5.527,2.474,5.527,5.527ZM43.952,12.202c.909-.718,1.092-1.913,1-2.978-.105-1.225-.787-2.218-1.881-2.53-1.132-.323-2.377-.004-3.025,1.032-.942,1.504-.647,4.153,1.11,4.888.921.385,1.969.241,2.795-.412Z"/>
      <path d="M73.734,24.769l.007,10.641-2.672-.004-.071-1.253c-1.613,1.753-4.51,1.891-6.242.151-.767-.77-1.154-1.934-1.155-3.016l-.009-6.514,2.691-.011.048,6.366c.01,1.332,1.131,2.142,2.368,2.119,1.211-.023,2.284-.854,2.291-2.147l.035-6.344,2.709.012Z"/>
      <path d="M110.505,6.525c-1.335-.076-2.507.818-2.515,2.157l-.039,6.303-2.717.016-.004-10.592,2.714.008.032,1.252c.862-1.009,1.955-1.409,3.251-1.416,2.247-.012,4.127,1.591,4.141,3.915l.042,6.817-2.716.02-.033-6.348c-.006-1.21-.94-2.061-2.157-2.13Z"/>
      <path d="M54.106,6.528c-1.247-.037-2.385.735-2.395,2.011l-.052,6.465-2.713-.007-.004-10.569,2.711-.02.049,1.212c.914-.993,1.886-1.328,3.123-1.367,2.396-.077,4.246,1.659,4.261,4.092l.042,6.638-2.719.02-.042-6.32c-.008-1.258-.991-2.118-2.261-2.155Z"/>
      <path d="M5.97,6.526c-1.457.018-2.344,1.02-2.349,2.385l-.022,6.087H.919s-.005-10.575-.005-10.575l2.676-.026.028,1.222c.96-.975,1.96-1.325,3.183-1.363,2.293-.071,4.076,1.547,4.237,3.874l.014,6.864-2.682.01-.037-6.317c-.007-1.287-1.104-2.177-2.364-2.161Z"/>
      <path d="M81.865,34.983c-1.543.791-3.382.767-4.915.104-1.285-.556-2.204-1.612-2.287-3.045l2.647-.003c.419,1.37,1.872,1.74,3.119,1.143.308-.147.5-.578.475-.926-.021-.285-.399-.669-.764-.779l-3.11-.932c-1.14-.342-1.977-1.219-2.112-2.285-.148-1.165.334-2.25,1.356-2.894,1.239-.781,2.728-.9,4.167-.603,1.662.343,2.896,1.644,2.93,3.375l-2.504-.004c-.112-.287-.292-.778-.483-.925-.769-.592-1.74-.606-2.568-.13-.21.121-.352.681-.281.912.087.281.459.622.791.721l2.914.871c1.181.353,2.07,1.222,2.217,2.325.167,1.257-.369,2.449-1.59,3.075Z"/>
      <path d="M124.755,32.918c-.464,2.578-4.204,3.323-6.742,2.056-1.185-.592-1.975-1.678-2.037-2.931l2.669.006c.343,1.342,1.847,1.71,3.023,1.173.367-.168.578-.562.552-.957-.02-.293-.379-.678-.728-.78l-2.658-.776c-.681-.199-1.452-.498-1.935-1.044-1.239-1.399-.754-3.534.877-4.411,1.415-.761,3.1-.845,4.604-.299,1.392.505,2.261,1.697,2.324,3.188l-2.563-.015c-.12-.477-.335-.933-.741-1.125-.704-.334-1.449-.351-2.168.011-.204.103-.419.566-.412.79.008.247.305.712.574.795l2.41.747c.738.229,1.539.491,2.126.997.748.644.996,1.632.826,2.575Z"/>
      <path d="M55.236,31.698c.414,1.166,1.46,1.697,2.59,1.54.846-.118,1.463-.551,1.765-1.419l2.887-.018c-.515,2.363-2.537,3.749-4.9,3.778-2.606.031-4.787-1.587-5.247-4.188-.233-1.315-.151-2.678.413-3.896,1.334-2.878,4.865-3.615,7.624-2.152,1.08.674,1.779,1.633,2.118,3.031l-2.891.017c-.33-.924-.987-1.383-1.888-1.469-1.095-.104-2.061.472-2.456,1.525-.38,1.012-.396,2.176-.014,3.251Z"/>
      <path d="M32.966,31.871c.39.955,1.287,1.415,2.228,1.387s1.739-.458,2.045-1.443l2.92.003c-.605,2.382-2.606,3.745-4.952,3.77-2.806.03-5.013-1.877-5.288-4.682-.145-1.484.072-2.976.956-4.209,1.189-1.66,3.151-2.282,5.146-2.025,2.065.265,3.657,1.587,4.122,3.711l-2.904.004c-.285-.941-1.021-1.391-1.907-1.466-1.054-.089-2.009.432-2.395,1.45-.413,1.092-.435,2.365.028,3.499Z"/>
      <path d="M85.341,11.287c.405,1.155,1.46,1.705,2.591,1.563.852-.107,1.482-.556,1.762-1.439l2.898-.011c-.5,2.303-2.478,3.69-4.781,3.777-2.755.104-5.03-1.674-5.411-4.438-.095-.693-.099-1.405.003-2.11.405-2.802,2.794-4.661,5.617-4.381,2.154.067,4.044,1.406,4.566,3.714l-2.916.036c-.29-.991-1.054-1.445-2.001-1.479-1.019-.037-1.884.465-2.275,1.436-.416,1.031-.444,2.222-.054,3.333Z"/>
      <path d="M3.937,27.018l-.01,8.395-2.737-.002-.002-8.382-1.187-.029.003-2.229,1.165-.013c.028-.793.054-1.499.319-2.204.594-1.583,2.475-2.133,4.211-1.986l-.004,2.17c-.451.072-1.084.115-1.382.406-.402.393-.396,1.046-.373,1.613l1.846.016-.003,2.225-1.844.021Z"/>
      <path d="M115.396,33.131l-.006,2.28-2.825-.136c-1.168-.056-2.206-1.201-2.218-2.449l-.057-5.806-1.256-.009-.02-2.198,1.287-.054-.006-2.586,2.71-.006v2.567s2.38.042,2.38.042l.021,2.228-2.395.01-.007,5.187c0,.496.328.899.838.907l1.553.023Z"/>
      <path d="M30.999,12.735l-.01,2.26-2.366-.04c-1.515-.025-2.703-1.224-2.715-2.792l-.04-5.554-1.248-.009-.02-2.177,1.281-.028.006-2.598,2.699.007.007,2.605,2.402.013v2.175s-2.4.002-2.4.002v5.187c-.001.492.347.928.828.933l1.576.016Z"/>
      <path d="M122.72,12.732l-.006,2.284-2.348-.063c-1.529-.041-2.738-1.212-2.746-2.784l-.031-5.563-1.246-.005-.023-2.168,1.272-.042.013-2.59,2.698-.003.012,2.61,2.408.009v2.176s-2.413.011-2.413.011l.004,5.236c0,.45.394.876.829.879l1.577.012Z"/>
      <path d="M104.804,35.41l-2.713-.005-.003-10.605,2.687-.044.077,1.518c.841-1.042,1.855-1.66,3.213-1.631l.016,2.835c-.824-.027-1.59-.062-2.299.334-.57.318-.953,1.083-.956,1.763l-.022,5.834Z"/>
      <path d="M126.92,14.994l-2.679.013V4.426s2.674-.014,2.674-.014l.047,1.528c.886-1.121,1.918-1.737,3.235-1.666v2.802c-.883-.031-1.71-.053-2.447.445-.468.316-.802,1.067-.805,1.666l-.025,5.807Z"/>
      <rect x="67.394" y="6.581" width="14.15" height="2.693" transform="translate(66.475 82.389) rotate(-89.949)"/>
      <path d="M48.602,35.395l-2.677.018v-10.631s2.659-.024,2.659-.024l.057,1.545c.884-1.094,1.852-1.641,3.223-1.679l.014,2.803-1.342.089c-1.165.077-1.905,1-1.91,2.168l-.024,5.712Z"/>
      <path d="M20.937,35.379l-2.679.053v-10.66s2.644-.007,2.644-.007l.081,1.518c.835-1.053,1.846-1.647,3.209-1.641l.017,2.821-1.628.098c-.919.055-1.606.966-1.611,1.918l-.032,5.899Z"/>
      <rect x="37.367" y="28.736" width="10.684" height="2.726" transform="translate(12.601 72.801) rotate(-89.988)"/>
      <rect x="32.897" y="4.406" width="2.701" height="10.628"/>
      <path d="M42.722,23.552c-1.018.001-1.694-.782-1.658-1.629.039-.916.759-1.555,1.725-1.523.92.031,1.557.665,1.584,1.526.027.851-.642,1.624-1.652,1.626Z"/>
      <path d="M34.092,3.142c-.93-.1-1.509-.837-1.479-1.619.032-.818.675-1.459,1.537-1.519.977-.067,1.757.606,1.788,1.525.031.926-.769,1.729-1.846,1.613Z"/>
    </g>
  </g>
</svg>