<?xml version="1.0" encoding="UTF-8"?>
<svg id="b" data-name="Layer 2" xmlns="http://www.w3.org/2000/svg" width="146.045" height="32.031" viewBox="0 0 146.045 32.031">
  <g id="c" data-name="Layer 1">
    <g>
      <path d="M0,23.462l.024-3.218c.392-1.905,1.217-3.441,2.72-4.756,2.859-2.501,7.762-2.887,11.139-1.445,2.652,1.133,4.645,3.431,5.014,6.315.435,3.402-.541,6.255-3.321,8.266-3.288,2.379-8.97,2.372-12.283-.055-1.747-1.279-2.859-3.066-3.293-5.108ZM14.088,20.766c-.217-1.124-.702-2.026-1.621-2.772-1.643-1.334-4.154-1.395-5.839-.129-1.411,1.06-1.843,2.555-1.801,4.258.064,2.637,2.285,4.691,4.944,4.511,3.055-.207,4.874-2.981,4.318-5.868Z"/>
      <path d="M51.221,30.379c-3.208.101-5.985-1.504-7.418-4.329-1.339-2.639-1.208-5.866.258-8.442,2.3-4.044,7.752-5.335,11.68-2.469l.022-4.373-2.874-.026c-.373-.003-1.071-.246-1.276-.562-.598-.923-.511-2.081.107-2.94l1.054-.43,6.102.006c.606-.067,1.066.338,1.066.975v18.233c.59.023,1.198.068,1.566.388.411.357.61.919.642,1.514.055,1.025-.569,2.009-1.677,2.013l-3.489.01c-.71.002-.845-.778-.815-1.319l.02-.353c.003-.053-.166-.098-.202-.058l-.228.25c-1.157,1.269-2.733,1.855-4.537,1.912ZM54.742,25.059c1.189-1.614,1.283-3.818.377-5.536-.66-1.251-1.823-2.024-3.115-2.133-1.356-.115-2.674.555-3.442,1.741-1.041,1.607-1.064,3.77-.179,5.449.642,1.218,1.794,1.929,2.991,2.005,1.329.084,2.515-.367,3.368-1.524Z"/>
      <path d="M34.647,28.135c-3.19,3.515-8.977,2.802-11.742-1.067-1.24-1.735-1.662-3.829-1.465-5.96.329-3.542,2.768-6.543,6.249-7.295,2.326-.502,4.529-.134,6.528,1.319l.036-4.337-2.939-.085c-1.174-.034-1.621-.968-1.592-2.006.025-.889.395-1.835,1.49-1.843l6.41-.05c.326-.003.81.33.81.721l.014,18.497c.788.02,1.267.125,1.63.451.483.434.524.908.556,1.607.037.831-.468,1.73-1.473,1.809-1.245.098-2.647.124-3.902-.024-.683-.081-.628-1.136-.61-1.738ZM33.289,24.981c1.311-1.856,1.231-4.462-.165-6.2-.779-.97-1.943-1.466-3.131-1.403-1.088.058-2.108.63-2.831,1.618-1.308,1.788-1.229,4.353.093,6.163.742,1.016,1.918,1.455,3.119,1.426,1.099-.027,2.163-.538,2.915-1.604Z"/>
      <path d="M75.046,30.386c-1.972-.053-3.538-.627-4.779-2.197.007.807.025,1.722-.733,1.723l-3.722.007c-.997.002-1.566-.943-1.556-1.849.006-.575.132-1.119.489-1.499.374-.397.911-.544,1.71-.526l.003-15.252c-1.441-.008-2.093-.574-2.218-1.955-.086-.951.487-1.974,1.579-1.982l4.27-.032c.339-.003.694.479.695.802l.02,7.522c1.717-1.277,3.565-1.757,5.555-1.487,2.055.279,3.82,1.116,5.149,2.747,1.543,1.727,2.109,4.033,2.003,6.379-.202,4.471-3.956,7.722-8.466,7.6ZM78.657,22.106c.013-1.502-.456-2.972-1.649-3.913-1.861-1.466-4.443-.917-5.622,1.181-.859,1.53-.876,3.573-.07,5.138.652,1.267,1.834,1.985,3.061,2.074,2.508.18,4.258-1.868,4.28-4.48Z"/>
      <path d="M90.45,30.128c-2.252-.52-3.68-2.204-3.913-4.436-.141-1.341.231-2.82,1.14-3.873,2.32-2.69,7.054-2.5,10.591-1.991.162-.435.101-.909-.006-1.359-.305-1.283-1.266-2.112-2.644-2.155-2.81-.088-5.57,3.034-7.271,1.132-.457-.511-.562-1.278-.212-1.973.976-1.941,4.991-2.326,7.413-2.309,1.681.012,3.386.098,4.856.998,1.3.795,2.114,2.347,2.128,3.911l.073,7.91c.577.086,1.217.113,1.601.454.878.779.948,2.249.088,3.079-.238.23-.956.443-1.279.437l-2.688-.052c-.715-.014-1.121-.838-1.421-1.481-2.511,1.651-5.491,2.393-8.456,1.708ZM98.396,25.333l-.028-2.645-2.137-.368-1.787.01c-1.199.007-2.408.497-2.999,1.65-.174.339-.149,1.185-.005,1.535.851,2.071,4.98,1.447,6.956-.182Z"/>
      <path d="M130.592,30.23c-.274-.103-.557-.768-.553-1.061l.046-3.908c.008-.702.734-1.22,1.278-1.268,2.234-.195,1.717,1.746,4.289,2.814,1.927.8,4.966.983,5.715-.831.596-1.444-2.017-2.015-3.677-2.302l-3.576-.619c-1.045-.181-1.989-.723-2.786-1.41-1.243-1.07-1.566-2.672-1.289-4.289.311-1.81,1.675-3.178,3.474-3.715,2.51-.748,5.132-.544,7.667.183.831.238.965-.87,2.344-.744.686.063,1.266.621,1.272,1.323l.022,2.85c.004.448-.292.996-.636,1.185-.401.22-1.038.355-1.464.093l-2.437-1.495c-2.807-1.722-5.926-.764-5.725.882.055.446.67.988,1.127,1.121,2.443.713,4.847.472,7.858,1.746,1.267.536,2.112,1.566,2.381,2.92.501,2.526-.521,4.719-2.856,5.859-2.518,1.229-6.899.964-9.746.13-.76.593-1.677.928-2.727.535Z"/>
      <path d="M112.58,31.926c-.655.066-1.525.177-2.122-.018-1.784-.584-3.155-5.412-3.096-7.907.04-1.687.548-3.296.999-4.894l1.224-4.331.131-1.585.135-2.714.142-2.705.12-2.039.111-2.78c.018-.461.127-.739-.314-1.064-.216-.159-.43-.643-.399-.921.136-1.212,3.353-1.303,3.843-.16.195.454-.19,1.049-.723,1.363l.046,1.272.157,3.371.121,2.299.151,3.113.14,2.463,1.53,5.388c.409,1.439.814,2.942.728,4.415-.14,2.421-.999,5.91-2.924,7.438Z"/>
      <path d="M126.554,22.098c.906,3.3-1.098,9.239-2.803,9.793-.521.169-1.523.199-2.057.009-1.751-.622-3.079-5.323-3.092-7.767-.006-1.225.313-2.46.642-3.635l1.628-5.823c.237-.848.072-1.836.135-2.715l.145-2.039.149-3.248.127-2.169.087-2.405c-.429-.267-.897-.786-.711-1.26.305-.78,1.093-.791,1.809-.801.784-.012,1.68.01,2.016.873.193.496-.43,1.006-.769,1.33l.145,2.815.126,2.445.146,2.838.137,2.454.129,1.982,2.012,7.322Z"/>
    </g>
  </g>
</svg>