<?xml version="1.0" encoding="UTF-8"?>
<svg id="b" data-name="Layer 2" xmlns="http://www.w3.org/2000/svg" width="60.592" height="49.103" viewBox="0 0 60.592 49.103">
  <g id="c" data-name="Layer 1">
    <g>
      <path d="M.004,15.031l-.004-14.634,5.353-.002.003,15.256c0,.491.086.964.283,1.38.254.537.852.767,1.421.737.557-.029,1.065-.318,1.271-.844.171-.437.183-.871.244-1.359V.396s5.34-.002,5.34-.002v14.129c-.114,3.03-1.02,5.915-4.247,6.548-1.828.359-3.69.341-5.509-.02-1.557-.309-2.731-1.275-3.382-2.705-.483-1.06-.647-2.174-.773-3.316Z"/>
      <path d="M12.079,38.251c1.047.587,1.882,1.354,2.333,2.433,1.179,2.819-.054,6.164-2.855,7.465-.912.384-1.847.622-2.87.623l-8.159.008v-20.799s8.552.004,8.552.004c.944,0,1.808.207,2.646.572,2.117.974,3.095,3.043,3.039,5.335.005.918-.181,1.788-.631,2.578-.46.807-1.16,1.343-2.055,1.782ZM9.09,35.43c.399-.723.384-1.585-.07-2.252-.329-.351-.791-.555-1.287-.56l-1.788-.02v3.522s1.705-.016,1.705-.016c.561-.005,1.078-.22,1.44-.674ZM9.324,42.338c.014-.536-.091-.977-.447-1.344-.349-.285-.787-.514-1.261-.522l-1.671-.027v3.714s1.67-.019,1.67-.019c.998-.011,1.682-.799,1.709-1.803Z"/>
      <path d="M22.815,17.771c.587.026,1.053-.225,1.277-.752.457-1.289.401-2.856.426-4.3h5.176s-.016,2.21-.016,2.21c-.004.613-.111,1.197-.214,1.797-.555,2.271-1.924,3.928-4.276,4.377-1.755.335-3.534.298-5.266-.106-2.688-.627-3.683-2.887-4.05-5.449-.242-1.689-.293-3.338-.287-5.052.006-1.619.079-3.174.354-4.761.464-2.683,1.662-4.874,4.476-5.471,1.54-.327,3.119-.359,4.672-.048,1.866.374,3.328,1.449,3.998,3.251.274.811.453,1.634.461,2.498l.017,1.847-5.191-.002c-.017-1.087.081-2.218-.224-3.278-.175-.57-.655-.926-1.262-.904-.385.014-.801.112-1.045.434-.52.685-.635,2.023-.671,2.982-.094,2.478-.099,4.918.006,7.396.034.797.124,1.556.344,2.295.184.619.639,1.006,1.295,1.035Z"/>
      <path d="M20.559,49.098c-1.846.045-3.455-.966-4.197-2.628-1.242-2.783-.323-6.27,2.609-7.355,1.358-.502,2.827-.456,4.155.023.021-.501-.03-1.016-.373-1.353-.371-.365-.909-.445-1.423-.487-1.365-.111-2.691.035-4.067.309l.605-3.553,2.667-.17c2.562-.048,6.321-.305,7.202,2.511.168.537.289,1.083.29,1.671l.009,10.714h-4.31s-.007-1.128-.007-1.128l-.674.646c-.711.537-1.549.777-2.486.8ZM23.642,43.54c0-.842-.682-1.524-1.524-1.524s-1.524.682-1.524,1.524.682,1.524,1.524,1.524,1.524-.682,1.524-1.524Z"/>
      <polygon points="43.612 16.611 43.621 21.007 31.694 21.004 31.693 .397 37.033 .396 37.032 16.609 43.612 16.611"/>
      <rect x="30.552" y="27.975" width="5.014" height="20.808"/>
      <rect x="30.078" y="35.879" width="20.807" height="5.001" transform="translate(2.101 78.86) rotate(-89.998)"/>
      <path d="M51.213,48.417c-1.818.905-4.205.792-6.194.358l.037-4.645c.747.349,1.466.475,2.185.267.233-.113.473-.287.55-.46.277-.618-.299-1.221-.862-1.718-1.632-1.442-2.434-3.008-2.086-5.227.222-1.418,1.118-2.542,2.472-3.035.712-.263,1.448-.431,2.227-.417l3.261.061.004,4.71c-.99-.629-2.46-.798-2.768.213-.108.355.027.706.292.981l1.424,1.48c1.405,1.46,1.893,3.508,1.226,5.43-.311.897-.945,1.557-1.767,2.001Z"/>
      <rect x="55.547" y="27.977" width="5.045" height="14.211"/>
      <rect x="55.547" y="43.523" width="5.044" height="5.258"/>
    </g>
  </g>
</svg>